<svg id="Page_1" data-name="Page 1" xmlns="http://www.w3.org/2000/svg" width="18.281" height="24"
 viewBox="0 0 18.281 24">
 <path id="Fill_1" data-name="Fill 1"
  d="M5.712,1.406,5.545.938a1.407,1.407,0,0,0-2.653,0l-.166.468H1.406A1.406,1.406,0,0,0,0,2.813v.7a.7.7,0,0,0,.7.7H7.734a.7.7,0,0,0,.7-.7v-.7A1.406,1.406,0,0,0,7.031,1.406Z"
  transform="translate(4.922)" fill="#8e8e93" />
 <path id="Fill_3" data-name="Fill 3"
  d="M16.172,21.188H2.11A2.187,2.187,0,0,1,0,18.985V2.11A2.112,2.112,0,0,1,2.11,0H3.515V.7a2.112,2.112,0,0,0,2.11,2.11h7.031A2.112,2.112,0,0,0,14.765.7V0h1.407a2.112,2.112,0,0,1,2.109,2.11V18.985A2.186,2.186,0,0,1,16.172,21.188ZM3.516,15.469a.7.7,0,0,0-.5,1.2l1.406,1.407a.705.705,0,0,0,.995,0l2.812-2.812a.7.7,0,0,0-.994-.994L4.922,16.584l-.909-.91A.7.7,0,0,0,3.516,15.469Zm7.032,0a.7.7,0,1,0,0,1.407h4.218a.7.7,0,0,0,0-1.407ZM3.516,10.547a.7.7,0,0,0-.5,1.2l1.406,1.407a.7.7,0,0,0,.995,0l2.812-2.812a.7.7,0,0,0-.994-.994L4.922,11.662l-.909-.909A.7.7,0,0,0,3.516,10.547Zm7.032,0a.7.7,0,1,0,0,1.406h4.218a.7.7,0,1,0,0-1.406ZM3.516,5.625a.7.7,0,0,0-.5,1.2L4.424,8.231a.7.7,0,0,0,.995,0L8.231,5.419a.7.7,0,0,0-.994-.995L4.922,6.74l-.909-.909A.7.7,0,0,0,3.516,5.625Zm7.032,0a.7.7,0,1,0,0,1.406h4.218a.7.7,0,0,0,0-1.406Z"
  transform="translate(0 2.813)" fill="#8e8e93" />
</svg>