<svg xmlns="http://www.w3.org/2000/svg" width="18.253" height="24" viewBox="0 0 18.253 24">
 <g id="Page_1" data-name="Page 1" transform="translate(0)">
  <g id="Group_5" data-name="Group 5">
   <path id="Fill_1" data-name="Fill 1"
    d="M4.832,11.738c2.668,0,4.832-2.627,4.832-5.869S8.953,0,4.832,0,0,2.628,0,5.869s2.163,5.869,4.832,5.869"
    transform="translate(4.295)" fill="#8e8e93" />
   <path id="Fill_3" data-name="Fill 3" d="M.006.5C0-.473,0,.226.006.5"
    transform="translate(0 20.597)" fill="#231f20" />
  </g>
  <path id="Fill_6" data-name="Fill 6"
   d="M11.772,0A3.383,3.383,0,0,1,9.126,1.012,3.384,3.384,0,0,1,6.48,0C.9,1.007.116,2.593.014,8.09.005,8.539,0,8.563,0,8.51c0,.1,0,.279,0,.593,0,0,1.343,2.708,9.125,2.708S18.251,9.1,18.251,9.1c0-.2,0-.343,0-.439a3.885,3.885,0,0,1-.01-.391C18.152,2.627,17.415,1.018,11.772,0Z"
   transform="translate(0.001 12.188)" fill="#8e8e93" />
 </g>
</svg>