<svg xmlns="http://www.w3.org/2000/svg" xmlns:xlink="http://www.w3.org/1999/xlink" width="24"
 height="24" viewBox="0 0 24 24">
 <defs>
  <clipPath id="clip-path">
   <path id="Clip_2" data-name="Clip 2" d="M0,0H24V24H0Z" transform="translate(0 0)" fill="none" />
  </clipPath>
 </defs>
 <g id="Page_1" data-name="Page 1" transform="translate(0 0)">
  <path id="Clip_2-2" data-name="Clip 2" d="M0,0H24V24H0Z" transform="translate(0 0)" fill="none" />
  <g id="Page_1-2" data-name="Page 1" clip-path="url(#clip-path)">
   <path id="Fill_1" data-name="Fill 1"
    d="M12,24A12,12,0,0,1,3.515,3.515a12,12,0,1,1,16.97,16.97A11.919,11.919,0,0,1,12,24ZM6.764,10.884a.7.7,0,0,0-.5,1.2l3.766,3.766a.7.7,0,0,0,.995,0l6.706-6.706a.7.7,0,1,0-.994-.995L10.53,14.359,7.261,11.091A.7.7,0,0,0,6.764,10.884Z"
    transform="translate(0 0)" fill="#fff" />
  </g>
 </g>
</svg>