<svg id="undraw_superhero_kguv" xmlns="http://www.w3.org/2000/svg" xmlns:xlink="http://www.w3.org/1999/xlink" width="313.934" height="229" viewBox="0 0 313.934 229">
  <defs>
    <linearGradient id="linear-gradient" x1="0.5" y1="1" x2="0.5" gradientUnits="objectBoundingBox">
      <stop offset="0" stop-color="gray" stop-opacity="0.251"/>
      <stop offset="0.54" stop-color="gray" stop-opacity="0.122"/>
      <stop offset="1" stop-color="gray" stop-opacity="0.102"/>
    </linearGradient>
    <clipPath id="clip-path">
      <path id="c8ed4358-d450-436c-89b2-67b880a93208" d="M7.089,14.588s15.28,4.606,36.675-2.3,65.708,9.98,65.708,9.98,35.146,0,87.1-22.264c0,0-23.685,23.032-6.877,36.852s1.529,33.78-18.337,41.458-21.392,23.032-19.866,37.62,0,.768,0,.768-59.6-10.748-74.878,26.11L.976,23.035S-3.607,13.823,7.089,14.588Z" transform="translate(0.03 0.176)" fill="none"/>
    </clipPath>
  </defs>
  <path id="Shape" d="M18.1,220.282c-.159-1.607,7.181-1.447,7.181-1.447l1.436-4.341h1.148l-.637-3.2-.13.046-.355-1.429-1.467.246-11.491-43.4s-1.6-15.911,11.491-50.629l-.319-46.76-7.153,1.05L12.482,75.74,16.69,98.323l1.146,1.483h.054s4.428,5.728,3.006,12.037c-1.164,5.206-7.217-5.237-9.279-9.022l-.556.418L1.005,72.861s-3.033-5.624,1.437-8.679L19.678,46.825s4.488-3.028,8.874-3.158a3.642,3.642,0,0,1,1.743-2.336l1.049-6.394a13.128,13.128,0,0,1,1.882-9.826,3.717,3.717,0,0,1-.6-.133,5.3,5.3,0,0,1-2.035-1.338,9.712,9.712,0,0,1-3.108-6.163,6.951,6.951,0,0,1,1.043-4.162,5.642,5.642,0,0,1,2.1-2.174c2.835-1.628,6.448-.342,9.184,1.453,2.354,1.543,5.158,3.542,7.686,2.309a17.312,17.312,0,0,0,2.224-1.647c2.919-2.064,7.266-1.047,9.649,1.626s3.045,6.541,2.642,10.108S60.251,31.931,59.007,35.3a6.647,6.647,0,0,1-.662,1.432,3.08,3.08,0,0,1-.5.7,2.479,2.479,0,0,1-2.257.675,13.054,13.054,0,0,1-2.8,3.763,78.275,78.275,0,0,0,18.432-3.2l1.034-.872L70.134,14.716l-.415.2S65.948-3.417,71.012.567c3.794,3,4.831,7.837,5.11,10.059l.114-.07L82.23,36.472a84.991,84.991,0,0,1,17.266.975c19.024,2.688,38.688,9.9,41.075,10.807,3.872-.072,38.589-1.323,88.487-22.758,0,0-.213.218-.586.606l1.2-.508s-8.047,7.84-11.558,17.188l-.74.275c-2.236,6.2-2.428,13,3.033,18.614v-.553a19.708,19.708,0,0,0,2.236,2.149c5.326,4.392,7.493,9.387,7.347,14.419-.193-.237-.394-.47-.6-.7.1,11.373-11.831,23.071-26.055,28.58-6.856,2.658-11.573,6.212-14.75,10.332l-5.452,28.928-11.6-1.263c-12.577-.753-32.941-.205-48.2,8.933L110.218,164.84a39.263,39.263,0,0,0-3.525,6.66L88.555,142.7,65.632,110.326C76.79,141.669,77,166.744,77,166.744l-11.491,43.4-1.612-.269-.147.445-.827,4.165h1.148l1.437,4.342s7.34-.16,7.18,1.447-4.145,4.341-14.365,1.446l-2.874-2.894s-1.436-1.447,1.437-4.342h.2l.785-5.618-1-.17L65.5,165.3c-7.184-5.945-20.11-28.931-20.11-28.931S32.458,159.351,25.277,165.3L33.9,208.706l-1,.169.8,5.619H33.9c2.873,2.893,1.436,4.341,1.436,4.341l-2.874,2.894A29.489,29.489,0,0,1,24.538,223C20.1,223,18.209,221.379,18.1,220.282Z" transform="translate(43 6)" fill="url(#linear-gradient)"/>
  <path id="Shape-2" data-name="Shape" d="M6.8,3.43H6.746L4.193,0,.063,4.3l.457.714L0,5.149S8.336,21.925,9.725,15.557,6.8,3.43,6.8,3.43Z" transform="translate(57 102)" fill="#fdb797"/>
  <path id="_83eae6ee-46c5-4585-a2a2-a187faac01c1" data-name="83eae6ee-46c5-4585-a2a2-a187faac01c1" d="M7.092,14.608S22.379,19.22,43.785,12.3s65.74,9.993,65.74,9.993,35.163,0,87.146-22.293c0,0-23.7,23.063-6.88,36.9s1.53,33.825-18.346,41.513-21.4,23.063-19.876,37.671,0,.769,0,.769S91.943,106.092,76.653,143L.977,23.066S-3.609,13.842,7.092,14.608Z" transform="translate(73 34)" fill="#6c63ff"/>
  <g id="Clipped" transform="translate(117 55)">
    <path id="c8ed4358-d450-436c-89b2-67b880a93208-2" data-name="c8ed4358-d450-436c-89b2-67b880a93208" d="M7.089,14.588s15.28,4.606,36.675-2.3,65.708,9.98,65.708,9.98,35.146,0,87.1-22.264c0,0-23.685,23.032-6.877,36.852s1.529,33.78-18.337,41.458-21.392,23.032-19.866,37.62,0,.768,0,.768-59.6-10.748-74.878,26.11L.976,23.035S-3.607,13.823,7.089,14.588Z" transform="translate(0.03 0.176)" fill="none"/>
    <g id="Clipped-2" data-name="Clipped" clip-path="url(#clip-path)">
      <g id="Group" transform="translate(-75.235 -29.754)">
        <path id="Shape-3" data-name="Shape" d="M0,0,190.247,137.426l11.46-33.78L0,0Z" transform="translate(0.139 0.055)" opacity="0.1"/>
        <path id="Shape-4" data-name="Shape" d="M0,0,105.437,107.484,120.72,95.968,0,0Z" transform="translate(11.599 43.049)" opacity="0.1"/>
      </g>
    </g>
  </g>
  <g id="Group-2" data-name="Group" transform="translate(74 34)" opacity="0.1">
    <path id="Shape-5" data-name="Shape" d="M10.917,25.183s15.28,4.578,36.675-2.29,65.7,9.922,65.7,9.922,28.432,0,71.953-16.1C188.688,7.623,196.574,0,196.574,0c-51.969,22.129-87.1,22.129-87.1,22.129S65.155,5.341,43.763,12.21,7.089,14.5,7.089,14.5c-10.7-.763-6.112,8.4-6.112,8.4l3.145,4.952C4.777,26.179,6.605,24.875,10.917,25.183Z" transform="translate(0.075 0.263)"/>
    <path id="Shape-6" data-name="Shape" d="M2.207,2.091A19.218,19.218,0,0,1,.013,0C-.162,4.506,1.394,8.987,6.026,12.774A23.837,23.837,0,0,1,9.4,16.112C9.552,11.217,7.428,6.358,2.207,2.091Z" transform="translate(187.575 34.801)"/>
  </g>
  <path id="Shape-7" data-name="Shape" d="M7,2.856,5.6,10H0L1.4,0,7,2.856Z" transform="translate(101 210)" fill="#fdb797"/>
  <path id="Shape-8" data-name="Shape" d="M6,1,5.6,2,0,.668.4,0,6,1Z" transform="translate(102 212)" opacity="0.1"/>
  <path id="Shape-9" data-name="Shape" d="M0,2.856,1.4,10H7L5.6,0,0,2.856Z" transform="translate(72 210)" fill="#fdb797"/>
  <path id="Shape-10" data-name="Shape" d="M0,1.286.4,3,6,.859V0L0,1.286Z" transform="translate(72 212)" opacity="0.1"/>
  <path id="Shape-11" data-name="Shape" d="M8,11.886S7.837,4.589,2.683.572,1.386,15,1.386,15Z" transform="translate(112 9)" fill="#fdb797"/>
  <path id="Shape-12" data-name="Shape" d="M15.266,0H8.328L6.94,4.595S-.152,4.424,0,6.124,4.01,10.719,13.878,7.654l2.775-3.059S18.041,3.059,15.266,0Z" transform="translate(63 218)" fill="#333"/>
  <path id="Shape-13" data-name="Shape" d="M1.734,0H8.672L10.06,4.595S17.152,4.424,17,6.124,12.99,10.719,3.122,7.654L.347,4.595S-1.041,3.059,1.734,0Z" transform="translate(100 218)" fill="#333"/>
  <path id="Shape-14" data-name="Shape" d="M50.687,0H11.312C-1.5,33.6.06,49,.06,49L11.312,90.991l8.451-1.4L11.312,47.606c7.032-5.755,19.694-28,19.694-28s12.655,22.23,19.682,28L42.236,89.6,50.687,91,61.939,49.005S63.511,33.6,50.687,0Z" transform="translate(59 121)" fill="#333"/>
  <path id="Shape-15" data-name="Shape" d="M0,0S22.117,6.75,39,0Z" transform="translate(70 121)" opacity="0.1"/>
  <path id="Shape-16" data-name="Shape" d="M23.752,19.981,12.371,31.243l4.274,22.528L10.954,58,1,28.433s-3-5.474,1.423-8.459l17.074-16.9S26.82-1.78,31.857.71s-8.2,19.093-8.2,19.093" transform="translate(45 51)" fill="#f96060"/>
  <path id="Shape-17" data-name="Shape" d="M0,52.293l1.406,50.93s22.328,8.5,39.372,0L39.372,55.28,39.013,53.7l.259-.78,16.9-14.1c4.632-2.565,2.185-8.32,2.185-8.32L51.294,0l-6,3.7,2.112,22.93L35.378,36.669l-.3-.015L4.23,35.318" transform="translate(68 19)" fill="#f96060"/>
  <rect id="Rectangle-path" width="11" height="12" rx="5.5" transform="translate(84 47)" fill="#fdb797"/>
  <path id="Shape-18" data-name="Shape" d="M0,4.371A12,12,0,0,0,10,3.3,5.191,5.191,0,0,0,5.133,0h0A5.136,5.136,0,0,0,0,4.371Z" transform="translate(85 47)" opacity="0.1"/>
  <circle id="Oval" cx="12.5" cy="12.5" r="12.5" transform="translate(76 27)" fill="#fdb797"/>
  <path id="Shape-19" data-name="Shape" d="M7.462,13.648a6.783,6.783,0,0,1-2.372-.129,5.255,5.255,0,0,1-2.007-1.271A9.106,9.106,0,0,1,.016,6.4a6.063,6.063,0,0,1,2.91-5.7C5.723-.835,9.29.383,11.987,2.084c2.32,1.471,5.09,3.357,7.583,2.189a17.217,17.217,0,0,0,2.2-1.559c2.879-1.956,7.167-.991,9.517,1.541s3.01,6.2,2.606,9.581-1.742,6.581-2.971,9.77a4.692,4.692,0,0,1-.952,1.715c-1.5,1.486-4.3.332-5.282-1.509-1.712-3.2,0-8.758-4.044-10.626C17.421,11.7,10.92,13.43,7.462,13.648Z" transform="translate(72 19)" opacity="0.1"/>
  <path id="Shape-20" data-name="Shape" d="M7.462,13.648a6.783,6.783,0,0,1-2.372-.129,5.255,5.255,0,0,1-2.007-1.271A9.106,9.106,0,0,1,.016,6.4a6.063,6.063,0,0,1,2.91-5.7C5.723-.835,9.29.383,11.987,2.084c2.32,1.471,5.09,3.357,7.583,2.189a17.217,17.217,0,0,0,2.2-1.559c2.879-1.956,7.167-.991,9.517,1.541s3.01,6.2,2.606,9.581-1.761,6.581-2.977,9.77a4.692,4.692,0,0,1-.952,1.715c-1.5,1.486-4.3.332-5.282-1.509-1.712-3.2,0-8.758-4.044-10.626C17.43,11.7,10.917,13.433,7.462,13.648Z" transform="translate(73 18)" fill="#333"/>
  <ellipse id="Oval-2" data-name="Oval" cx="1.5" cy="2.5" rx="1.5" ry="2.5" transform="translate(94 37)" fill="#fdb797"/>
  <path id="Shape-21" data-name="Shape" d="M0,0,3,1.662,0,6V0Z" transform="translate(68 71)" opacity="0.1"/>
  <path id="Shape-22" data-name="Shape" d="M2.841,0,0,2.632,1.893,5,3,2.368,2.841,0Z" transform="translate(105 72)" opacity="0.1"/>
  <path id="Shape-23" data-name="Shape" d="M17,5.6V8S.422,4.8,0,0L10.941.8Z" transform="translate(73 53)" fill="#6c63ff"/>
  <path id="Shape-24" data-name="Shape" d="M0,5.6V8S16.578,4.8,17,0L6.059.8Z" transform="translate(90 53)" fill="#6c63ff"/>
  <path id="Shape-25" data-name="Shape" d="M0,0,55,12.749,35.138,21,0,0Z" transform="translate(192 84)" opacity="0.1"/>
  <path id="Shape-26" data-name="Shape" d="M0,5S0,0,3.334,0,10,10,10,10Z" transform="translate(73 48)" fill="#6c63ff"/>
  <circle id="Oval-3" data-name="Oval" cx="1.5" cy="1.5" r="1.5" transform="translate(2 86)" fill="#f55f44" opacity="0.5"/>
  <circle id="Oval-4" data-name="Oval" cx="1.5" cy="1.5" r="1.5" transform="translate(27 136)" fill="#f55f44" opacity="0.5"/>
  <circle id="Oval-5" data-name="Oval" cx="1.5" cy="1.5" r="1.5" transform="translate(250 3)" fill="#f55f44" opacity="0.5"/>
  <path id="Shape-27" data-name="Shape" d="M4.6,2.542A1.374,1.374,0,0,1,3.829.883.646.646,0,0,0,3.858.731h0A.689.689,0,0,0,2.619.276h0a.646.646,0,0,0-.078.136,1.376,1.376,0,0,1-1.657.763.648.648,0,0,0-.152-.029h0A.689.689,0,0,0,.276,2.384h0a.647.647,0,0,0,.136.078,1.374,1.374,0,0,1,.757,1.655.646.646,0,0,0-.029.152h0a.689.689,0,0,0,1.239.456h0a.646.646,0,0,0,.078-.136,1.376,1.376,0,0,1,1.66-.766.648.648,0,0,0,.152.029h0a.689.689,0,0,0,.46-1.235h0A.647.647,0,0,0,4.6,2.542Z" transform="translate(148 5)" fill="#4d8af0" opacity="0.5"/>
  <path id="Shape-28" data-name="Shape" d="M4.589,2.539A1.372,1.372,0,0,1,3.824.882.646.646,0,0,0,3.853.73h0A.688.688,0,0,0,2.616.275h0a.646.646,0,0,0-.077.136,1.372,1.372,0,0,1-1.656.765A.646.646,0,0,0,.73,1.147h0A.688.688,0,0,0,.275,2.384h0a.646.646,0,0,0,.136.077,1.372,1.372,0,0,1,.765,1.656.646.646,0,0,0-.029.152h0a.688.688,0,0,0,1.237.455h0a.646.646,0,0,0,.077-.136,1.372,1.372,0,0,1,1.656-.765.646.646,0,0,0,.152.029h0a.688.688,0,0,0,.455-1.237h0A.646.646,0,0,0,4.589,2.539Z" transform="translate(250 132)" fill="#4d8af0" opacity="0.5"/>
  <circle id="Oval-6" data-name="Oval" cx="1.5" cy="1.5" r="1.5" transform="translate(175 192)" fill="#47e6b1" opacity="0.5"/>
  <circle id="Oval-7" data-name="Oval" cx="1.5" cy="1.5" r="1.5" transform="translate(2 178)" fill="#47e6b1" opacity="0.5"/>
  <circle id="Oval-8" data-name="Oval" cx="1.5" cy="1.5" r="1.5" transform="translate(169 26)" fill="#47e6b1" opacity="0.5"/>
  <g id="Group-3" data-name="Group" opacity="0.5">
    <rect id="Rectangle-path-2" data-name="Rectangle-path" width="1.041" height="5.895" transform="translate(2.427)" fill="#47e6b1"/>
    <rect id="Rectangle-path-3" data-name="Rectangle-path" width="1.041" height="5.895" transform="translate(5.895 2.427) rotate(90)" fill="#47e6b1"/>
  </g>
  <g id="Group-4" data-name="Group" transform="translate(19 57)" opacity="0.5">
    <path id="Rectangle-path-4" data-name="Rectangle-path" d="M0,0H.991V5.614H0Z" transform="translate(2.48 0.129)" fill="#47e6b1"/>
    <path id="Rectangle-path-5" data-name="Rectangle-path" d="M0,0H.991V5.614H0Z" transform="translate(5.783 2.44) rotate(90)" fill="#47e6b1"/>
  </g>
  <g id="Group-5" data-name="Group" transform="translate(210 31)" opacity="0.5">
    <rect id="Rectangle-path-6" data-name="Rectangle-path" width="1.041" height="5.895" transform="translate(3.268 0.015)" fill="#47e6b1"/>
    <rect id="Rectangle-path-7" data-name="Rectangle-path" width="1.041" height="5.895" transform="translate(6.739 2.442) rotate(90)" fill="#47e6b1"/>
  </g>
</svg>
