<svg id="undraw_events_2p66" xmlns="http://www.w3.org/2000/svg"
 xmlns:xlink="http://www.w3.org/1999/xlink" width="305" height="252" viewBox="0 0 305 252">
 <defs>
  <linearGradient id="linear-gradient" x1="0.5" y1="1" x2="0.5" gradientUnits="objectBoundingBox">
   <stop offset="0" stop-color="gray" stop-opacity="0.251" />
   <stop offset="0.54" stop-color="gray" stop-opacity="0.122" />
   <stop offset="1" stop-color="gray" stop-opacity="0.102" />
  </linearGradient>
  <linearGradient id="linear-gradient-2" x1="1834.21" y1="806.87" x2="1834.21" y2="194.98"
   xlink:href="#linear-gradient" />
 </defs>
 <path id="Shape"
  d="M284.854,139.239c-11.715,18.88-9.52,44.6-4.374,64.881,1.721,6.791,3.7,13.959,2.233,21.558-1.8,9.292-8.364,16.589-15.006,20.768-12.109,7.6-25.937,7.388-36.006-.557-8.7-6.863-14.421-18.833-23.3-25.328-14.845-10.872-35.229-4.283-52.929,5.878-12.517,7.171-26.294,16.3-37.863,11.13-8.139-3.628-13.215-13.864-15.584-25-1.143-5.378-1.835-11.253-4.457-15.349a17.268,17.268,0,0,0-5.928-5.4c-20.293-12.19-47.749-2-67.319-15.8-13.218-9.32-20.732-28.572-23.2-49.157s-.439-42.612,2.1-64.3C5.032,47.136,7.48,30.641,15.6,18.1,24.2,4.838,37.744-1.094,49.519.165s22,8.691,30.81,17.776c11.013,11.353,20.947,25.853,35.2,29.516,9.709,2.5,20.312-.393,30.637-2.026,17.239-2.731,34.237-1.948,51.116-.922,16.159.982,32.415,2.2,47.471,7.867,10.653,4.012,18.831,12.363,28.773,17.794,6.481,3.54,13.793,3.99,19.832,8.71A29.654,29.654,0,0,1,304.256,109C301.417,121.9,291.069,129.22,284.854,139.239Z"
  fill="#6c63ff" opacity="0.1" />
 <path id="Shape-2" data-name="Shape"
  d="M0,66S32.411,38.983,39.618,25.361A194.509,194.509,0,0,1,56,0" transform="translate(211 31)"
  fill="none" stroke="#535461" stroke-miterlimit="10" stroke-width="2" />
 <path id="Shape-3" data-name="Shape" d="M14,2.9,0,0S3.3,13.585,14,2.9Z"
  transform="translate(246 60)" fill="#6c63ff" />
 <path id="Shape-4" data-name="Shape" d="M1.873,0,9,10.978S-4.933,12.013,1.873,0Z"
  transform="translate(238 47)" fill="#6c63ff" />
 <path id="Shape-5" data-name="Shape" d="M11,2.547,0,0S6.909,13.882,11,2.547Z"
  transform="translate(254 49)" fill="#6c63ff" />
 <path id="Shape-6" data-name="Shape" d="M1.138,0,7,7.965S-3.377,8.985,1.138,0Z"
  transform="translate(245 40)" fill="#6c63ff" />
 <path id="Shape-7" data-name="Shape" d="M0,0S9.6.531,10.731,1.6,9.3,8.908,5.648,7.888,0,0,0,0Z"
  transform="translate(261 38)" fill="#6c63ff" />
 <path id="Shape-8" data-name="Shape"
  d="M3.888,0S8.155,7.273,8,8.658s-6.5,2.94-7.784-2.3A4.977,4.977,0,0,1,3.888,0Z"
  transform="translate(252 27)" fill="#6c63ff" />
 <circle id="Oval" cx="3.5" cy="3.5" r="3.5" transform="translate(263.108 36.784) rotate(-72.474)"
  fill="#ffd037" />
 <circle id="Oval-2" data-name="Oval" cx="3.5" cy="3.5" r="3.5"
  transform="translate(258.108 32.784) rotate(-72.474)" fill="#ffd037" />
 <path id="Shape-9" data-name="Shape"
  d="M77.707,76.443S82.8,61.166,50.519,42.749c0,0-32.776-9.641-29.425-42.749,0,0-37.784,27.919-12.217,63.482s47.635,27.8,47.635,27.8Z"
  transform="translate(32 125)" fill="#6c63ff" />
 <path id="Shape-10" data-name="Shape"
  d="M51,82S35.277,65.108,20.206,58.578a30.027,30.027,0,0,1-8.188-5.421A37.111,37.111,0,0,1,.7,18.556L4.32,0"
  transform="translate(50 125)" fill="none" stroke="#535461" stroke-miterlimit="10" stroke-width="2" />
 <rect id="Rectangle-path" width="180" height="209" transform="translate(62 9)"
  fill="url(#linear-gradient)" />
 <rect id="Rectangle-path-2" data-name="Rectangle-path" width="176" height="203"
  transform="translate(62 12)" fill="#f7f7fd" />
 <rect id="Rectangle-path-3" data-name="Rectangle-path" width="44" height="5"
  transform="translate(74 37)" fill="#e2e2ec" />
 <rect id="Rectangle-path-4" data-name="Rectangle-path" width="76" height="5"
  transform="translate(74 44)" fill="#e2e2ec" />
 <rect id="Rectangle-path-5" data-name="Rectangle-path" width="32" height="27"
  transform="translate(199 32)" fill="#fff" />
 <path id="Shape-11" data-name="Shape" d="M0,27V0H32V27Z" transform="translate(199 32)"
  fill="#e2e2ec" />
 <rect id="Rectangle-path-6" data-name="Rectangle-path" width="32" height="27"
  transform="translate(168 32)" fill="#fff" />
 <path id="Shape-12" data-name="Shape" d="M0,27V0H32V27Z" transform="translate(167 32)"
  fill="#e2e2ec" />
 <rect id="Rectangle-path-7" data-name="Rectangle-path" width="32" height="27"
  transform="translate(199 60)" fill="#fff" />
 <path id="Shape-13" data-name="Shape" d="M0,27V0H32V27Z" transform="translate(199 60)"
  fill="#e2e2ec" />
 <rect id="Rectangle-path-8" data-name="Rectangle-path" width="32" height="27"
  transform="translate(168 60)" fill="#fff" />
 <path id="Shape-14" data-name="Shape" d="M0,27V0H32V27Z" transform="translate(167 60)"
  fill="#e2e2ec" />
 <rect id="Rectangle-path-9" data-name="Rectangle-path" width="32" height="27"
  transform="translate(135 60)" fill="#fff" />
 <path id="Shape-15" data-name="Shape" d="M0,27V0H32V27Z" transform="translate(135 60)"
  fill="#e2e2ec" />
 <rect id="Rectangle-path-10" data-name="Rectangle-path" width="32" height="27"
  transform="translate(104 60)" fill="#fff" />
 <path id="Shape-16" data-name="Shape" d="M0,27V0H32V27Z" transform="translate(103 60)"
  fill="#e2e2ec" />
 <rect id="Rectangle-path-11" data-name="Rectangle-path" width="32" height="27"
  transform="translate(72 60)" fill="#fff" />
 <path id="Shape-17" data-name="Shape" d="M0,27V0H32V27Z" transform="translate(72 60)"
  fill="#e2e2ec" />
 <rect id="Rectangle-path-12" data-name="Rectangle-path" width="32" height="27"
  transform="translate(199 88)" fill="#fff" />
 <path id="Shape-18" data-name="Shape" d="M0,27V0H32V27Z" transform="translate(199 88)"
  fill="#e2e2ec" />
 <rect id="Rectangle-path-13" data-name="Rectangle-path" width="32" height="27"
  transform="translate(168 88)" fill="#fff" />
 <path id="Shape-19" data-name="Shape" d="M0,27V0H32V27Z" transform="translate(167 88)"
  fill="#e2e2ec" />
 <rect id="Rectangle-path-14" data-name="Rectangle-path" width="32" height="27"
  transform="translate(135 88)" fill="#fff" />
 <path id="Shape-20" data-name="Shape" d="M0,27V0H32V27Z" transform="translate(135 88)"
  fill="#e2e2ec" />
 <rect id="Rectangle-path-15" data-name="Rectangle-path" width="32" height="27"
  transform="translate(104 88)" fill="#fff" />
 <path id="Shape-21" data-name="Shape" d="M0,27V0H32V27Z" transform="translate(103 88)"
  fill="#e2e2ec" />
 <rect id="Rectangle-path-16" data-name="Rectangle-path" width="32" height="27"
  transform="translate(72 88)" fill="#fff" />
 <path id="Shape-22" data-name="Shape" d="M0,27V0H32V27Z" transform="translate(72 88)"
  fill="#e2e2ec" />
 <rect id="Rectangle-path-17" data-name="Rectangle-path" width="32" height="27"
  transform="translate(199 116)" fill="#fff" />
 <path id="Shape-23" data-name="Shape" d="M0,27V0H32V27Z" transform="translate(199 116)"
  fill="#e2e2ec" />
 <rect id="Rectangle-path-18" data-name="Rectangle-path" width="32" height="27"
  transform="translate(168 116)" fill="#fff" />
 <path id="Shape-24" data-name="Shape" d="M0,27V0H32V27Z" transform="translate(167 116)"
  fill="#e2e2ec" />
 <rect id="Rectangle-path-19" data-name="Rectangle-path" width="32" height="27"
  transform="translate(135 116)" fill="#fff" />
 <path id="Shape-25" data-name="Shape" d="M0,27V0H32V27Z" transform="translate(135 116)"
  fill="#e2e2ec" />
 <rect id="Rectangle-path-20" data-name="Rectangle-path" width="32" height="27"
  transform="translate(104 116)" fill="#fff" />
 <path id="Shape-26" data-name="Shape" d="M0,27V0H32V27Z" transform="translate(103 116)"
  fill="#e2e2ec" />
 <rect id="Rectangle-path-21" data-name="Rectangle-path" width="32" height="27"
  transform="translate(72 116)" fill="#fff" />
 <path id="Shape-27" data-name="Shape" d="M0,27V0H32V27Z" transform="translate(72 116)"
  fill="#e2e2ec" />
 <rect id="Rectangle-path-22" data-name="Rectangle-path" width="32" height="27"
  transform="translate(199 141)" fill="#fff" />
 <path id="Shape-28" data-name="Shape" d="M0,27V0H32V27Z" transform="translate(199 141)"
  fill="#e2e2ec" />
 <rect id="Rectangle-path-23" data-name="Rectangle-path" width="32" height="27"
  transform="translate(168 141)" fill="#fff" />
 <path id="Shape-29" data-name="Shape" d="M0,27V0H32V27Z" transform="translate(167 141)"
  fill="#e2e2ec" />
 <rect id="Rectangle-path-24" data-name="Rectangle-path" width="32" height="27"
  transform="translate(135 141)" fill="#fff" />
 <path id="Shape-30" data-name="Shape" d="M0,27V0H32V27Z" transform="translate(135 141)"
  fill="#e2e2ec" />
 <rect id="Rectangle-path-25" data-name="Rectangle-path" width="32" height="27"
  transform="translate(104 141)" fill="#fff" />
 <path id="Shape-31" data-name="Shape" d="M0,27V0H32V27Z" transform="translate(103 141)"
  fill="#e2e2ec" />
 <rect id="Rectangle-path-26" data-name="Rectangle-path" width="32" height="27"
  transform="translate(72 141)" fill="#fff" />
 <path id="Shape-32" data-name="Shape" d="M0,27V0H32V27Z" transform="translate(72 141)"
  fill="#e2e2ec" />
 <rect id="Rectangle-path-27" data-name="Rectangle-path" width="32" height="27"
  transform="translate(199 170)" fill="#fff" />
 <path id="Shape-33" data-name="Shape" d="M0,27V0H32V27Z" transform="translate(199 170)"
  fill="#e2e2ec" />
 <rect id="Rectangle-path-28" data-name="Rectangle-path" width="32" height="27"
  transform="translate(168 170)" fill="#fff" />
 <path id="Shape-34" data-name="Shape" d="M0,27V0H32V27Z" transform="translate(167 170)"
  fill="#e2e2ec" />
 <rect id="Rectangle-path-29" data-name="Rectangle-path" width="32" height="27"
  transform="translate(135 170)" fill="#fff" />
 <path id="Shape-35" data-name="Shape" d="M0,27V0H32V27Z" transform="translate(135 170)"
  fill="#e2e2ec" />
 <rect id="Rectangle-path-30" data-name="Rectangle-path" width="32" height="27"
  transform="translate(104 170)" fill="#fff" />
 <path id="Shape-36" data-name="Shape" d="M0,27V0H32V27Z" transform="translate(103 170)"
  fill="#e2e2ec" />
 <rect id="Rectangle-path-31" data-name="Rectangle-path" width="32" height="27"
  transform="translate(72 170)" fill="#fff" />
 <path id="Shape-37" data-name="Shape" d="M0,27V0H32V27Z" transform="translate(72 170)"
  fill="#e2e2ec" />
 <path id="Shape-38" data-name="Shape"
  d="M19.882,6.73a4.557,4.557,0,0,0,2.05-2.1A1.757,1.757,0,0,0,20.5,2.487a5.2,5.2,0,0,0-3.785.9A6.178,6.178,0,0,1,13.036,4.6a3.178,3.178,0,0,0,1.732-3.563,1.339,1.339,0,0,0-.482-.723,3.193,3.193,0,0,0-2.927.115,6.456,6.456,0,0,0-3.569,6.2,8.018,8.018,0,0,1-.051-2.556,2.346,2.346,0,0,0-1.41-2.262,5.938,5.938,0,0,0-2.153-.345,6,6,0,0,0-3.492.675C-.378,2.913-.1,4.209.82,5.057A13.979,13.979,0,0,0,4.435,7.025,7.337,7.337,0,0,1,7.005,8.7,1.459,1.459,0,0,1,7.2,9h7.83a24.087,24.087,0,0,0,4.855-2.27Z"
  transform="translate(118 214)" fill="#6c63ff" />
 <circle id="Oval-3" data-name="Oval" cx="2.5" cy="2.5" r="2.5" transform="translate(74 62)"
  fill="#fc6681" />
 <circle id="Oval-4" data-name="Oval" cx="2.5" cy="2.5" r="2.5" transform="translate(78 62)"
  fill="#ffd037" />
 <circle id="Oval-5" data-name="Oval" cx="2.5" cy="2.5" r="2.5" transform="translate(137 88)"
  fill="#6c63ff" />
 <circle id="Oval-6" data-name="Oval" cx="2.5" cy="2.5" r="2.5" transform="translate(143 88)"
  fill="#6c63ff" />
 <circle id="Oval-7" data-name="Oval" cx="2.5" cy="2.5" r="2.5" transform="translate(233 141)"
  fill="#6c63ff" />
 <circle id="Oval-8" data-name="Oval" cx="2.5" cy="2.5" r="2.5" transform="translate(234 138)"
  fill="#6c63ff" />
 <circle id="Oval-9" data-name="Oval" cx="2.5" cy="2.5" r="2.5" transform="translate(237 135)"
  fill="#6c63ff" />
 <circle id="Oval-10" data-name="Oval" cx="2.5" cy="2.5" r="2.5" transform="translate(202 62)"
  fill="#6c63ff" />
 <circle id="Oval-11" data-name="Oval" cx="2.5" cy="2.5" r="2.5" transform="translate(206 62)"
  fill="#6c63ff" />
 <circle id="Oval-12" data-name="Oval" cx="2.5" cy="2.5" r="2.5" transform="translate(211 62)"
  fill="#6c63ff" />
 <circle id="Oval-13" data-name="Oval" cx="2.5" cy="2.5" r="2.5" transform="translate(215 62)"
  fill="#6c63ff" />
 <circle id="Oval-14" data-name="Oval" cx="2.5" cy="2.5" r="2.5" transform="translate(202 117)"
  fill="#6c63ff" />
 <circle id="Oval-15" data-name="Oval" cx="2.5" cy="2.5" r="2.5" transform="translate(206 117)"
  fill="#6c63ff" />
 <circle id="Oval-16" data-name="Oval" cx="2.5" cy="2.5" r="2.5" transform="translate(211 117)"
  fill="#6c63ff" />
 <circle id="Oval-17" data-name="Oval" cx="2.5" cy="2.5" r="2.5" transform="translate(215 117)"
  fill="#6c63ff" />
 <circle id="Oval-18" data-name="Oval" cx="2.5" cy="2.5" r="2.5" transform="translate(106 88)"
  fill="#ffd037" />
 <circle id="Oval-19" data-name="Oval" cx="2.5" cy="2.5" r="2.5" transform="translate(74 117)"
  fill="#fc6681" />
 <path id="Shape-39" data-name="Shape"
  d="M4.195,191.52c-4.167-1.079-3.055-4.857-.834-4.587a10.269,10.269,0,0,0,3.327-.433c-1.3-1.5-.26-3.546,1.395-3.345,2.22.27,7.219-1.691,7.219-1.691l.022.031a3.772,3.772,0,0,1,.492-.148,56.38,56.38,0,0,0,5.5-1.532c1.072-2.274,3.542-8.384,1.769-13.126a23.337,23.337,0,0,1-1.063-7.757,87.768,87.768,0,0,0-3.659-24.642l-3.33-11.327s-4.722-13.779-5-17.545l.039-5.51c-3.917,2.488-7.009,1.735-8.992.577a2.109,2.109,0,0,1-.333-3.442A16.9,16.9,0,0,0,3.65,93.514a12.949,12.949,0,0,1,6.5-4.785v-.859l-.121-.022.054-.8h-.054l.139-2.111v-.019l.695-10.552A16.011,16.011,0,0,0,8.921,60.871c-4.447-6.477-.279-12.687,3.888-15.116,0,0,1.948-10.258.279-12.686a71.4,71.4,0,0,1,6.978-3.521c.036-.128.069-.257.1-.39.045-.957.105-1.926.159-2.867a10.493,10.493,0,0,0-.273-1.472c-.051-.2-.112-.4-.178-.612a10.533,10.533,0,0,1-6.793-9.768,10.256,10.256,0,0,1,.647-3.605,4.593,4.593,0,0,1-.479-1.152,4.592,4.592,0,0,1,.66-3.367,12.377,12.377,0,0,1,5.9-5.473C22.7-.319,27.046-.052,30.053.309c1.687.2,3.615.762,4.224,2.306a14.893,14.893,0,0,1,.387,1.777c.628,2.36,3.362,3.458,5.046,5.259a12.369,12.369,0,0,1,2.626,5.843,53.37,53.37,0,0,1,.974,18.351c-.168,1.409-.393,2.812-.634,4.214,1.012,1.412,1.928,3.913,1.509,8.256l3.334,15.655,1.389,9.178a7.962,7.962,0,0,1-2.5,7.019,61.8,61.8,0,0,0-6.292,7.817,18.446,18.446,0,0,1,1.034,6.209c-.035.964-.089,1.893-.156,2.777a24.507,24.507,0,0,1-1.066,5.532c-.39,3.768-1.161,8.589-2.668,11.663L36.7,128.63s.834,15.115,2.5,18.085-3.613,28.071-3.613,28.071v3.506l.892,2.595.221-.166c4.168,5.136,0,7.019,0,7.019s-1.132.053-2.947.122a3.3,3.3,0,0,1-1.776,3.658S21.48,192,13.249,192A51.776,51.776,0,0,1,4.195,191.52Z"
  transform="translate(233 44)" fill="url(#linear-gradient-2)" />
 <path id="Shape-40" data-name="Shape"
  d="M22.9,1.849,24,4.639,20.4,7.674,8.547,10,0,9.3.553,6.744h0A3.431,3.431,0,0,1,3.268,4.49C6.781,3.794,13.48,2.2,14.887,0Z"
  transform="translate(245 221)" fill="#db8b8b" />
 <path id="Shape-41" data-name="Shape"
  d="M22.9,1.849,24,4.639,20.4,7.674,8.547,10,0,9.3.553,6.744h0A3.431,3.431,0,0,1,3.268,4.49C6.781,3.794,13.48,2.2,14.887,0Z"
  transform="translate(245 221)" opacity="0.1" />
 <path id="Shape-42" data-name="Shape"
  d="M9.075,5.043,10.72,3.026,9.075.688S4.144,2.52,1.952,2.268s-3.287,3.292.822,4.289,27.4,0,27.4,0,4.109-1.766,0-6.557L26.6,2.523S20.57,5.549,17.557,5.046Z"
  transform="translate(239 225)" fill="#2e3037" />
 <path id="Shape-43" data-name="Shape"
  d="M0,9.3l8.547.7L20.4,7.676,24,4.643,23.709,3.9,23.3,2.867l-.412-1.009L14.89,0a4.643,4.643,0,0,1-1.636,1.379c-2.6,1.5-7.262,2.578-10,3.118a3.274,3.274,0,0,0-.327.085A3.345,3.345,0,0,0,.553,6.749Z"
  transform="translate(243 225)" fill="#db8b8b" />
 <path id="Shape-44" data-name="Shape"
  d="M0,6.2,8.547,7,20.4,4.331,24,.848,23.709,0,20.418,2.45s-6.065,3.2-9.1,2.669H2.758L4.413,2.986,2.928.769A3.575,3.575,0,0,0,.553,3.258Z"
  transform="translate(243 228)" opacity="0.1" />
 <path id="Shape-45" data-name="Shape"
  d="M9.075,5.043,10.72,3.026,9.075.688S4.144,2.52,1.952,2.268s-3.287,3.292.822,4.289,27.4,0,27.4,0,4.109-1.766,0-6.557L26.6,2.523S20.57,5.549,17.557,5.046Z"
  transform="translate(237 230)" fill="#2e3037" />
 <path id="Shape-46" data-name="Shape"
  d="M0,13.855s12,1.306,10.25-3.921a9.824,9.824,0,0,1-.371-4.616A13.12,13.12,0,0,1,12,0L.75,1.83A15.11,15.11,0,0,1,2.275,5.609C3.615,11.153,0,13.855,0,13.855Z"
  transform="translate(250 66)" fill="#db8b8b" />
 <path id="Shape-47" data-name="Shape"
  d="M15,0s-.258,11.266-2.842,16.768L11.64,32.75s.776,14.673,2.327,17.555-3.372,27.248-3.372,27.248v4.194S2.318,84.89,0,81.221l2.327-31.18L1.294,6.811Z"
  transform="translate(256 141)" fill="#474463" />
 <path id="Shape-48" data-name="Shape"
  d="M15,0s-.258,11.266-2.842,16.768L11.64,32.75s.776,14.673,2.327,17.555-3.372,27.248-3.372,27.248v4.194S2.318,84.89,0,81.221l2.327-31.18L1.294,6.811Z"
  transform="translate(256 141)" opacity="0.1" />
 <path id="Shape-49" data-name="Shape"
  d="M11.989,0l1.6,4.391L14.92,13.72a8.4,8.4,0,0,1-2.4,7.132C9.324,24.142,5.059,31,5.059,31L0,15.376s5.059-.823,4.265-4.391S3.728.81,3.728.81Z"
  transform="translate(265 106)" fill="#f95f5f" />
 <path id="Shape-50" data-name="Shape"
  d="M11.989,0l1.6,4.391L14.92,13.72a8.4,8.4,0,0,1-2.4,7.132C9.324,24.142,5.059,31,5.059,31L0,15.376s5.059-.823,4.265-4.391S3.728.81,3.728.81Z"
  transform="translate(290 122)" opacity="0.05" />
 <path id="Shape-51" data-name="Shape"
  d="M0,2.016c3.177,6.84,8.124,2.965,9,2.193l-.359-1.5L1.458,0A5.611,5.611,0,0,1,0,2.016Z"
  transform="translate(255 225)" opacity="0.1" />
 <path id="Shape-52" data-name="Shape"
  d="M0,29.433c.249,3.711,4.5,17.228,4.5,17.228l3,11.124a93.488,93.488,0,0,1,3.3,24.2,24.825,24.825,0,0,0,.958,7.617c2,5.831-2,13.784-2,13.784,3.5,6.626,9.491,2.12,9.491,2.12v-4.239S23.988,78.2,22.743,73.7,20.993,57,20.993,57V34.984a25.647,25.647,0,0,0,6.86-15.825c.059-.868.107-1.78.139-2.727.2-5.975-3.654-12.992-5.161-15.489C22.47.34,22.238,0,22.238,0L.166,9.284l-.05.022v2.909Z"
  transform="translate(243 123)" fill="#474463" />
 <path id="Shape-53" data-name="Shape"
  d="M0,2.039A18.3,18.3,0,0,1,1.491,6.257a8.156,8.156,0,0,0,7.436-.325A15.883,15.883,0,0,1,11,0Z"
  transform="translate(252 66)" opacity="0.1" />
 <circle id="Oval-20" data-name="Oval" cx="11" cy="11" r="11" transform="translate(245 52)"
  fill="#db8b8b" />
 <path id="Shape-54" data-name="Shape"
  d="M0,10.718l.117.019C11.592,12.747,26,2.563,26,2.563A11.436,11.436,0,0,1,25,.829C24.607.3,24.354,0,24.354,0L.188,8.161l-.062.816Z"
  transform="translate(243 123)" opacity="0.1" />
 <path id="Shape-55" data-name="Shape"
  d="M5.7,6.247S20.286-2.837,24.975.9l6.513,8.557s4.17,1.334,3.4,9.882L38,34.831l-9.378,2.406s-5.471,5.344-1.042,13.09c0,0-13.807,11.752-24.749,9.35l.782-12.554A16.624,16.624,0,0,0,1.79,33.766c-4.17-6.412-.26-12.554,3.647-14.959C5.437,18.8,7.258,8.652,5.7,6.247Z"
  transform="translate(240 75)" fill="#e54e4e" />
 <path id="Shape-56" data-name="Shape"
  d="M11.356,0S5.945.966,3.368,4.83a15.269,15.269,0,0,1-2.7,3.152,1.855,1.855,0,0,0-.662,1.6,1.907,1.907,0,0,0,.968,1.455c2.045,1.146,5.381,1.859,9.594-1.384C17.8,4.106,11.356,0,11.356,0Z"
  transform="translate(234 135)" fill="#db8b8b" />
 <path id="Shape-57" data-name="Shape"
  d="M8.832.2s5.2-.538,6.5,13.419,3.4,17.177,3.4,17.177,1.3,7.248-1.821,11.541S7.8,55.758,7.8,55.758,1.3,57.637,0,50.927L8.066,35.361s1.3-5.369-1.821-9.127S.766-2.483,8.832.2Z"
  transform="translate(244 84)" opacity="0.1" />
 <path id="Shape-58" data-name="Shape"
  d="M8.832.2s5.2-.538,6.5,13.419,3.4,17.177,3.4,17.177,1.3,7.248-1.821,11.541S7.8,55.758,7.8,55.758,1.3,57.637,0,50.927L8.066,35.361s1.3-5.369-1.821-9.127S.775-2.483,8.832.2Z"
  transform="translate(244 84)" fill="#f95f5f" />
 <path id="Shape-59" data-name="Shape" d="M.068,0S-.649,8.444,2.576,13.089,5.814,23.723,2.576,27"
  transform="translate(249 95)" opacity="0.1" />
 <path id="Shape-60" data-name="Shape" d="M0,5S2.249,2.648,8.72,2.352,18,0,18,0"
  transform="translate(246 82)" opacity="0.1" />
 <path id="Shape-61" data-name="Shape"
  d="M15.613.308c1.589.2,3.413.758,3.978,2.284a15.938,15.938,0,0,1,.363,1.761c.593,2.335,3.165,3.424,4.751,5.21a12.758,12.758,0,0,1,2.482,5.787,55.581,55.581,0,0,1,.931,18.168c-.509,4.442-1.551,8.8-1.843,13.256s.242,9.141,2.622,12.885c1.024,1.609,2.377,3.024,3.1,4.794-1.5,1.244-3.568,1.421-5.5,1.488q-3.373.117-6.749,0a7.064,7.064,0,0,1-3.429-.73,5.367,5.367,0,0,1-1.8-1.977,14.318,14.318,0,0,1-1.551-7.507c.059-2.589.456-5.165.5-7.758a6.91,6.91,0,0,0-.878-4.068A13.077,13.077,0,0,0,10.4,41.831C7.611,39.293,6.643,35.225,6.55,31.4s.524-7.653.208-11.464c-.124-1.491-.67-3.284-2.1-3.573a7.25,7.25,0,0,1-1.365-.178c-1.151-.454-1.039-2.113-1.368-3.328C1.551,11.5.412,10.442.092,9.052-.662,5.816,3.366,1.954,6.007.828,8.691-.321,12.783-.048,15.613.308Z"
  transform="translate(245 49)" opacity="0.1" />
 <path id="Shape-62" data-name="Shape"
  d="M15.613.31c1.589.2,3.413.758,3.978,2.284a15.937,15.937,0,0,1,.363,1.761c.593,2.335,3.165,3.423,4.751,5.21a12.758,12.758,0,0,1,2.482,5.787,55.577,55.577,0,0,1,.931,18.167c-.509,4.442-1.551,8.8-1.843,13.256s.242,9.141,2.622,12.884c1.024,1.609,2.377,3.024,3.1,4.794-1.5,1.244-3.568,1.421-5.5,1.488q-3.373.117-6.749,0a7.064,7.064,0,0,1-3.429-.73,5.367,5.367,0,0,1-1.8-1.977,14.317,14.317,0,0,1-1.551-7.507c.059-2.589.456-5.165.5-7.757a6.91,6.91,0,0,0-.878-4.067A13.076,13.076,0,0,0,10.4,41.832C7.611,39.293,6.643,35.226,6.55,31.4s.524-7.653.208-11.463c-.124-1.491-.67-3.284-2.1-3.573a7.25,7.25,0,0,1-1.365-.178c-1.151-.454-1.039-2.113-1.368-3.328C1.551,11.5.412,10.444.092,9.054-.662,5.818,3.366,1.957,6.007.83,8.691-.321,12.783-.048,15.613.31Z"
  transform="translate(245 49)" fill="#472727" />
</svg>