<svg id="undraw_analysis_4jis" xmlns="http://www.w3.org/2000/svg"
 xmlns:xlink="http://www.w3.org/1999/xlink" width="282" height="231" viewBox="0 0 282 231">
 <defs>
  <linearGradient id="linear-gradient" x1="0.5" y1="1" x2="0.5" gradientUnits="objectBoundingBox">
   <stop offset="0" stop-color="gray" stop-opacity="0.251" />
   <stop offset="0.54" stop-color="gray" stop-opacity="0.122" />
   <stop offset="1" stop-color="gray" stop-opacity="0.102" />
  </linearGradient>
  <linearGradient id="linear-gradient-2" x1="569.83" y1="551.49" x2="569.83" y2="380.82"
   xlink:href="#linear-gradient" />
  <linearGradient id="linear-gradient-3" x1="171.5" y1="319.2" x2="171.5" y2="319.02"
   xlink:href="#linear-gradient" />
  <linearGradient id="linear-gradient-4" x1="228.01" y1="853.75" x2="228.01" y2="250.26"
   xlink:href="#linear-gradient" />
  <linearGradient id="linear-gradient-5" x1="944.05" y1="849.94" x2="944.05" y2="268.42"
   xlink:href="#linear-gradient" />
 </defs>
 <ellipse id="Oval" cx="48.5" cy="8" rx="48.5" ry="8" transform="translate(0 215)" fill="#6c63ff"
  opacity="0.1" />
 <ellipse id="Oval-2" data-name="Oval" cx="48.5" cy="8" rx="48.5" ry="8"
  transform="translate(185 212)" fill="#6c63ff" opacity="0.1" />
 <path id="Shape"
  d="M58.176.122C45.5.8,32.694,4.515,22.8,12.5,14.128,19.5,7.87,30.515,9.4,41.582,11.2,54.645,22.824,64.148,27.136,76.61c2.775,8.011,2.342,16.851.526,25.138-1.168,5.34-2.965,10.685-6.417,14.917C15.026,124.279,3.8,127.953.748,137.3c-3.323,10.169,5.051,20.141,12.917,27.373,6.28,5.771,12.857,11.514,20.77,14.677,5.786,2.315,12.066,3.146,18.29,3.478a121.7,121.7,0,0,0,50.424-8.077c7.69-2.992,15.13-6.785,23.178-8.589,17.152-3.845,34.8,1.7,52.185,4.3a155.681,155.681,0,0,0,44.96.133c9.385-1.343,19.081-3.765,26.149-10.1,7.164-6.428,10.746-16.379,10.349-26.02s-4.453-18.923-10.426-26.492c-7.715-9.776-18.356-16.732-27.615-25.064a119.651,119.651,0,0,1-23.757-29.442c-3.637-6.354-6.731-13.1-11.443-18.691-7.349-8.718-18.007-13.9-28.656-17.909C133.506,7.653,108.024,5.774,82.409,1.7A115.441,115.441,0,0,0,58.176.122Z"
  transform="translate(17)" fill="#6c63ff" opacity="0.1" />
 <g id="Group" transform="translate(71 20)" opacity="0.7">
  <rect id="Rectangle-path" width="52.33" height="29.465" transform="translate(0.148 81.486)"
   fill="#f6f7f9" />
  <g id="Group-2" data-name="Group" transform="translate(4.385 88.91)" opacity="0.2">
   <ellipse id="Oval-3" data-name="Oval" cx="5.448" cy="5.489" rx="5.448" ry="5.489"
    transform="translate(0.167 0.166)" fill="#6c63ff" />
  </g>
  <g id="Group-3" data-name="Group" transform="translate(21.923 87.806)" opacity="0.2">
   <rect id="Rectangle-path-2" data-name="Rectangle-path" width="23.737" height="1.505"
    transform="translate(0.167 0.254)" fill="#6c63ff" />
  </g>
  <g id="Group-4" data-name="Group" transform="translate(21.923 91.672)" opacity="0.2">
   <rect id="Rectangle-path-3" data-name="Rectangle-path" width="12.093" height="1.505"
    transform="translate(0.167 0.224)" fill="#6c63ff" />
  </g>
  <g id="Group-5" data-name="Group" transform="translate(21.923 95.537)" opacity="0.2">
   <rect id="Rectangle-path-4" data-name="Rectangle-path" width="19.558" height="1.505"
    transform="translate(0.167 0.193)" fill="#6c63ff" />
  </g>
  <g id="Group-6" data-name="Group" transform="translate(21.923 99.403)" opacity="0.2">
   <rect id="Rectangle-path-5" data-name="Rectangle-path" width="23.737" height="1.505"
    transform="translate(0.167 0.163)" fill="#6c63ff" />
  </g>
  <g id="Group-7" data-name="Group" transform="translate(39.188 104.925)" opacity="0.2">
   <rect id="Rectangle-path-6" data-name="Rectangle-path" width="6.569" height="2.908"
    transform="translate(0.074 0.177)" fill="#6c63ff" />
  </g>
  <rect id="Rectangle-path-7" data-name="Rectangle-path" width="52.33" height="29.465"
   transform="translate(44.205 0.055)" fill="#f6f7f9" />
  <g id="Group-8" data-name="Group" transform="translate(48.505 7.455)" opacity="0.2">
   <ellipse id="Oval-4" data-name="Oval" cx="5.448" cy="5.489" rx="5.448" ry="5.489"
    transform="translate(0.107 0.191)" fill="#6c63ff" />
  </g>
  <g id="Group-9" data-name="Group" transform="translate(66.043 6.627)" opacity="0.2">
   <rect id="Rectangle-path-8" data-name="Rectangle-path" width="23.737" height="1.505"
    transform="translate(0.107 0.003)" fill="#6c63ff" />
  </g>
  <g id="Group-10" data-name="Group" transform="translate(66.043 10.216)" opacity="0.2">
   <rect id="Rectangle-path-9" data-name="Rectangle-path" width="12.093" height="1.505"
    transform="translate(0.107 0.249)" fill="#6c63ff" />
  </g>
  <g id="Group-11" data-name="Group" transform="translate(66.043 14.082)" opacity="0.2">
   <rect id="Rectangle-path-10" data-name="Rectangle-path" width="19.558" height="1.505"
    transform="translate(0.107 0.218)" fill="#6c63ff" />
  </g>
  <g id="Group-12" data-name="Group" transform="translate(66.043 17.948)" opacity="0.2">
   <rect id="Rectangle-path-11" data-name="Rectangle-path" width="23.737" height="1.505"
    transform="translate(0.107 0.191)" fill="#6c63ff" />
  </g>
  <g id="Group-13" data-name="Group" transform="translate(83.308 23.47)" opacity="0.2">
   <rect id="Rectangle-path-12" data-name="Rectangle-path" width="6.569" height="2.908"
    transform="translate(0.011 0.202)" fill="#6c63ff" />
  </g>
  <rect id="Rectangle-path-13" data-name="Rectangle-path" width="52.33" height="29.465"
   transform="translate(61.623 49.525)" fill="#f6f7f9" />
  <g id="Group-14" data-name="Group" transform="translate(65.769 56.881)" opacity="0.2">
   <ellipse id="Oval-5" data-name="Oval" cx="5.448" cy="5.489" rx="5.448" ry="5.489"
    transform="translate(0.258 0.237)" fill="#6c63ff" />
  </g>
  <g id="Group-15" data-name="Group" transform="translate(83.308 56.052)" opacity="0.2">
   <rect id="Rectangle-path-14" data-name="Rectangle-path" width="23.737" height="1.505"
    transform="translate(0.26 0.05)" fill="#6c63ff" />
  </g>
  <g id="Group-16" data-name="Group" transform="translate(83.308 59.918)" opacity="0.2">
   <rect id="Rectangle-path-15" data-name="Rectangle-path" width="12.093" height="1.505"
    transform="translate(0.26 0.019)" fill="#6c63ff" />
  </g>
  <g id="Group-17" data-name="Group" transform="translate(83.308 63.507)" opacity="0.2">
   <rect id="Rectangle-path-16" data-name="Rectangle-path" width="19.558" height="1.505"
    transform="translate(0.26 0.265)" fill="#6c63ff" />
  </g>
  <g id="Group-18" data-name="Group" transform="translate(83.308 67.373)" opacity="0.2">
   <rect id="Rectangle-path-17" data-name="Rectangle-path" width="23.737" height="1.505"
    transform="translate(0.26 0.235)" fill="#6c63ff" />
  </g>
  <g id="Group-19" data-name="Group" transform="translate(100.572 72.896)" opacity="0.2">
   <rect id="Rectangle-path-18" data-name="Rectangle-path" width="6.569" height="2.908"
    transform="translate(0.164 0.249)" fill="#6c63ff" />
  </g>
 </g>
 <rect id="Rectangle-path-19" data-name="Rectangle-path" width="88" height="50"
  transform="translate(53 37)" fill="url(#linear-gradient)" />
 <rect id="Rectangle-path-20" data-name="Rectangle-path" width="87" height="49"
  transform="translate(53 38)" fill="#f6f7f9" />
 <g id="Group-20" data-name="Group" transform="translate(61 51)" opacity="0.2">
  <circle id="Oval-6" data-name="Oval" cx="9.347" cy="9.347" r="9.347"
   transform="translate(0.224 0.156)" fill="#6c63ff" />
 </g>
 <g id="Group-21" data-name="Group" transform="translate(90 49)" opacity="0.2">
  <rect id="Rectangle-path-21" data-name="Rectangle-path" width="39.619" height="2.709"
   transform="translate(0.254 0.132)" fill="#6c63ff" />
 </g>
 <g id="Group-22" data-name="Group" transform="translate(90 55)" opacity="0.2">
  <rect id="Rectangle-path-22" data-name="Rectangle-path" width="20.485" height="2.709"
   transform="translate(0.258 0.144)" fill="#6c63ff" />
 </g>
 <g id="Group-23" data-name="Group" transform="translate(90 62)" opacity="0.2">
  <rect id="Rectangle-path-23" data-name="Rectangle-path" width="32.541" height="2.709"
   transform="translate(0.253 0.153)" fill="#6c63ff" />
 </g>
 <g id="Group-24" data-name="Group" transform="translate(90 68)" opacity="0.2">
  <rect id="Rectangle-path-24" data-name="Rectangle-path" width="39.619" height="2.709"
   transform="translate(0.254 0.162)" fill="#6c63ff" />
 </g>
 <rect id="Rectangle-path-25" data-name="Rectangle-path" width="11" height="4"
  transform="translate(119 77)" fill="#6c63ff" />
 <rect id="Rectangle-path-26" data-name="Rectangle-path" width="84" height="47"
  transform="translate(115 105)" fill="url(#linear-gradient-2)" />
 <rect id="Rectangle-path-27" data-name="Rectangle-path" width="83" height="46"
  transform="translate(116 105)" fill="#f6f7f9" />
 <g id="Group-25" data-name="Group" transform="translate(122 117)" opacity="0.2">
  <circle id="Oval-7" data-name="Oval" cx="8.82" cy="8.82" r="8.82"
   transform="translate(0.163 0.101)" fill="#6c63ff" />
 </g>
 <g id="Group-26" data-name="Group" transform="translate(150 116)" opacity="0.2">
  <rect id="Rectangle-path-28" data-name="Rectangle-path" width="37.623" height="2.577"
   transform="translate(0.149 0.165)" fill="#6c63ff" />
 </g>
 <g id="Group-27" data-name="Group" transform="translate(150 122)" opacity="0.2">
  <rect id="Rectangle-path-29" data-name="Rectangle-path" width="18.625" height="2.577"
   transform="translate(0.145 0.141)" fill="#6c63ff" />
 </g>
 <g id="Group-28" data-name="Group" transform="translate(150 128)" opacity="0.2">
  <rect id="Rectangle-path-30" data-name="Rectangle-path" width="30.611" height="1.909"
   transform="translate(0.147 0.084)" fill="#6c63ff" />
 </g>
 <g id="Group-29" data-name="Group" transform="translate(150 134)" opacity="0.2">
  <rect id="Rectangle-path-31" data-name="Rectangle-path" width="37.623" height="1.909"
   transform="translate(0.149 0.064)" fill="#6c63ff" />
 </g>
 <g id="Group-30" data-name="Group" transform="translate(177 142)" opacity="0.5">
  <rect id="Rectangle-path-32" data-name="Rectangle-path" width="9.695" height="4.614"
   transform="translate(0.092 0.253)" fill="#6c63ff" />
 </g>
 <g id="Group-31" data-name="Group" transform="translate(22 79)" opacity="0.1">
  <path id="Shape-2" data-name="Shape" d="M0,0l.185.04A.25.25,0,0,0,0,0Z"
   transform="translate(0.215 0.226)" fill="url(#linear-gradient-3)" />
 </g>
 <path id="Shape-3" data-name="Shape"
  d="M40.9,161.915a3.334,3.334,0,0,1-2.434-1.441s.033-.93.135-2.011a7.576,7.576,0,0,1,.717-3.153c.325-.338.535-.72.827-1l-.858.033c-1.99-1.32-.568-5-.568-5v-9.168s-1.26-8.964-.651-11.447-2.555-7.088-2.555-7.088l-.446-5c-1.544-2-2.274-13.051-2.274-13.051l-1.654-5.557c.047.242.931,4.877,0,5.757s-1.26,4.642-1.26,4.642.9,10.491,0,12.609a2.97,2.97,0,0,0,.248,3.281l.163,10.886a16.783,16.783,0,0,0,.08,7.044c.851,4.126,0,10.49,0,10.49H29.45a6.671,6.671,0,0,0,.736,1.98,10.608,10.608,0,0,1,.358,3.056c.03.72.036,1.375.014,1.716-.063.993-1.185,1.053-1.185,1.053-3.289.509-3.986,1.771-3.986,1.771a10.661,10.661,0,0,1-7.912,2.643c-4.044-.385-3.649-1.094-3.445-2.412a4.674,4.674,0,0,0,.066-.742c0-1.8,1.406-2.31,3.584-3.661s2.117-2.495,3.032-3.485a4.208,4.208,0,0,0,.871-1.953l.041-4.4L20.2,144.549s-.973-15.529-1.745-18.894a8.331,8.331,0,0,1,.81-5.883s-1.621-2.563-1.541-4.365-1.238-5.243-1.238-5.243L14.605,97.512a24.647,24.647,0,0,0-.311-4.459c-1.911.577-5.194-4.852-6.081-6.39-.143-.253-.223-.4-.223-.4l-.243-1.521s-.527-.292-1.744-.8-2.03-6.877-2.03-6.877-1.176-3.2-3.206-8.8.609-13.45.609-13.45l2.109-9.248c-.364-6.16,2.253-9.736,2.253-9.736L17.78,26.2a1.053,1.053,0,0,1,1.128-.118l.122.06c.072-1,.075-2.068.047-3.073V22.8a.472.472,0,0,1-.317.129h-.077a2.347,2.347,0,0,1-1.731-.662c.05.022.1.038.151.058a3.594,3.594,0,0,1-.516-.55,14.044,14.044,0,0,1-1.2-2.245,21.4,21.4,0,0,0-1.93-2.94L11.909,14.5a4.228,4.228,0,0,0-.779-.872,9.239,9.239,0,0,1-.827-.577,2.177,2.177,0,0,1-.438-2.1c.179-.715.56-1.383.81-2.091A2.64,2.64,0,0,0,10.65,6.69a3.228,3.228,0,0,1-.494-.869,1.452,1.452,0,0,1,.5-1.193C11.965,3.2,13.877,2.52,15.614,1.653A19.9,19.9,0,0,1,18.446.344,9.457,9.457,0,0,1,23.854.46,8.62,8.62,0,0,1,29.427,4.6a2.078,2.078,0,0,1-.176,2.476c.143.1.284.2.419.31a9.16,9.16,0,0,1,.75,13.8c.016.143.039.283.063.418a5.111,5.111,0,0,0,1.147,2.476l.207-.033a.966.966,0,0,0-.275-.258l13.074,2.781s3.65.8,6.288,9.847c.083.28.154.571.221.847,0,0,3.716,9.522,4.324,13.6,0,0,2.768,10.944.86,15.444s-1.745,13.428-1.745,13.428-1.1,1.636-1.544,1.2.163,1.708.163,1.722a.117.117,0,0,0-.033.119c.019.076.033.121.033.121h-.072c-.485,1.659-3.327,10.992-6.064,8.4.672,5.352,1.224,11.217,1.224,11.217s2.718,10.928,1.552,12.009-1.022,4.6-1.022,4.6c1.742,3.323.73,9.448.73,9.448l.16,17.812a14.51,14.51,0,0,0-2.272,7.646h-.325l2.274,3.4s.515,1.711,3.986,3.54a3.8,3.8,0,0,1,2.186,2.39,2.1,2.1,0,0,1-.246,1.513,1.764,1.764,0,0,1-1.009.824l-.08.02a63.485,63.485,0,0,1-6.514.275S42.477,162.006,40.9,161.915Z"
  transform="translate(10 60)" fill="url(#linear-gradient-4)" />
 <path id="Shape-4" data-name="Shape"
  d="M6.8,8.282C5.678,13.389,1.221,5.664.206,3.812L0,3.428.483,1.08,3.038,0A7.036,7.036,0,0,1,4.18.773,7.245,7.245,0,0,1,6.8,8.282Z"
  transform="translate(19 143)" fill="#efb7b9" />
 <path id="Shape-5" data-name="Shape"
  d="M8,1.3l-.031.114a.655.655,0,0,1-.039.125C7.454,3.128,4.623,12.045,1.89,9.568-1.1,6.85.353.609.353.609H.381L6.673,0,7.919,1.213h0Z"
  transform="translate(55 142)" fill="#efb7b9" />
 <path id="Shape-6" data-name="Shape"
  d="M38.416,46.334l.159,17.734a14.467,14.467,0,0,0-2.262,7.615L28.2,72c-1.98-1.313-.559-4.98-.559-4.98V57.891s-1.267-8.922-.663-11.405-2.545-7.055-2.545-7.055L24,34.451c-1.538-1.992-2.265-12.995-2.265-12.995l-1.653-5.518c.042.24.9,4.878,0,5.73s-1.253,4.624-1.253,4.624.889,10.443,0,12.553a3.073,3.073,0,0,0,.24,3.311L19.23,53a16.737,16.737,0,0,0,.078,7.016c.847,4.105,0,10.443,0,10.443H10.584l.039-4.414L9.211,62.294s-.97-15.464-1.737-18.81a8.3,8.3,0,0,1,.805-5.86s-1.613-2.552-1.532-4.345-1.233-5.22-1.233-5.22L3.635,15.464a24.123,24.123,0,0,0-.928-7.173C1.613,4.7,0,0,0,0L1.823.16l9.206.808S33.4-.516,34.409.717A4.081,4.081,0,0,1,34.834,2c1,4.456,2.332,18.4,2.332,18.4s2.707,10.881,1.544,11.957-1.018,4.583-1.018,4.583C39.425,40.236,38.416,46.334,38.416,46.334Z"
  transform="translate(22 143)" fill="#444053" />
 <path id="Shape-7" data-name="Shape"
  d="M15.988,8.467c-.062.994-1.142,1.055-1.142,1.055-3.158.511-3.827,1.777-3.827,1.777a10.059,10.059,0,0,1-7.6,2.66c-3.884-.383-3.508-1.11-3.309-2.415A4.852,4.852,0,0,0,.176,10.8c0-1.8,1.349-2.318,3.452-3.67s2.046-2.5,2.923-3.49A5.62,5.62,0,0,0,7.516.724C8.509-1.053,11.025,1,11.025,1c.116.63,3.859.555,3.859.555a8.728,8.728,0,0,0,.75,2.165,11.007,11.007,0,0,1,.345,3.054C16,7.47,16.006,8.128,15.988,8.467Z"
  transform="translate(24 212)" fill="#b07473" />
 <path id="Shape-8" data-name="Shape"
  d="M15.988,1.665c-.062.958-1.142,1.017-1.142,1.017C11.689,3.175,11.019,4.4,11.019,4.4a10.253,10.253,0,0,1-7.6,2.564C-.461,6.59-.086,5.889.113,4.631c1.735.428,5.055,1.023,6.993-.021,2.7-1.451,4.623-2.465,4.623-2.465L15.975,0C16,.7,16.007,1.338,15.988,1.665Z"
  transform="translate(24 218)" opacity="0.1" />
 <path id="Shape-9" data-name="Shape"
  d="M16.712,12.857a1.752,1.752,0,0,1-1,.842.4.4,0,0,1-.078.02A61.059,61.059,0,0,1,9.173,14s-5.2-4.059-6.759-4.152A3.331,3.331,0,0,1,0,8.388S.031,7.445.131,6.35A7.828,7.828,0,0,1,.844,3.156c.7-.73.835-1.732,2.414-1.095,0,0,2.228-3.961,4.857-.9l2.718,4.157s.512,1.732,3.954,3.588a3.8,3.8,0,0,1,2.164,2.42A2.157,2.157,0,0,1,16.712,12.857Z"
  transform="translate(48 212)" fill="#b07473" />
 <path id="Shape-10" data-name="Shape"
  d="M16.711,5.954c-.306.239-.649.5-1,.771a.426.426,0,0,1-.078.018C14.3,7,9.173,7,9.173,7s-5.2-3.714-6.758-3.8A3.353,3.353,0,0,1,0,1.865S.031,1,.131,0C1.727.442,4.149,1.22,4.8,2.055A19.252,19.252,0,0,0,8.814,5.114s5.633-.5,8.137-.568A1.83,1.83,0,0,1,16.711,5.954Z"
  transform="translate(48 219)" opacity="0.1" />
 <path id="Shape-11" data-name="Shape"
  d="M15,9.283,7.591,17s-8.974-.652-7.407-3.266c.8-1.329.923-4.109.853-6.537C.97,4.861.726,2.872.726,2.872S13.313-3.3,12.349,2.456a9.418,9.418,0,0,0-.036,3.287A4.344,4.344,0,0,0,15,9.283Z"
  transform="translate(28 77)" fill="#efb7b9" />
 <path id="Shape-12" data-name="Shape"
  d="M11.946,2.324a8.22,8.22,0,0,0-.037,3.111A10,10,0,0,1,5.139,8C3.379,8,1.5,6.7.083,5.939.014,3.727,0,2.718,0,2.718S12.937-3.126,11.946,2.324Z"
  transform="translate(29 77)" opacity="0.1" />
 <path id="Shape-13" data-name="Shape" d="M19,9.5a9.5,9.5,0,1,1-3.574-7.422A9.5,9.5,0,0,1,19,9.5Z"
  transform="translate(24 67)" fill="#efb7b9" />
 <path id="Shape-14" data-name="Shape"
  d="M33,1.713C30.706,6.787,15.949,6.892,15.949,6.892V1.362l-.894-.054c.386,1.583-.552,5.446-.552,5.446C2.84,8.293,0,2.114,0,2.114L.4,0,9.49.752S31.573-.628,32.569.518A3.647,3.647,0,0,1,33,1.713Z"
  transform="translate(23 143)" opacity="0.1" />
 <path id="Shape-15" data-name="Shape"
  d="M15.8,64.887V58.9l-.886-.055c.383,1.712-.547,5.889-.547,5.889C5.675,65.98,1.925,62.517.6,60.714a5.465,5.465,0,0,1-.6-1L3.525,39.578,4.346,9.942l1.272-5.2.3-2.5V2.219l.03.014.9.391,5.383,2.358L18.368.3l.09-.069.3-.233.506.413,1.255,1.021,4.031,26.393s6.991,20.323,8.287,28.526c.052.327.1.632.129.918C33.821,64.748,15.8,64.887,15.8,64.887Z"
  transform="translate(23 85)" fill="#e1e7ef" />
 <circle id="Oval-8" data-name="Oval" cx="0.5" cy="0.5" r="0.5" transform="translate(35 91)"
  fill="#67647e" />
 <circle id="Oval-9" data-name="Oval" cx="0.5" cy="0.5" r="0.5" transform="translate(36 95)"
  fill="#67647e" />
 <circle id="Oval-10" data-name="Oval" cx="0.5" cy="0.5" r="0.5" transform="translate(36 103)"
  fill="#67647e" />
 <circle id="Oval-11" data-name="Oval" cx="0.5" cy="0.5" r="0.5" transform="translate(37 111)"
  fill="#67647e" />
 <circle id="Oval-12" data-name="Oval" cx="0.5" cy="0.5" r="0.5" transform="translate(37 119)"
  fill="#67647e" />
 <circle id="Oval-13" data-name="Oval" cx="0.5" cy="0.5" r="0.5" transform="translate(38 127)"
  fill="#67647e" />
 <circle id="Oval-14" data-name="Oval" cx="0.5" cy="0.5" r="0.5" transform="translate(38 135)"
  fill="#67647e" />
 <path id="Shape-16" data-name="Shape"
  d="M6.182,40.465S5.609,48.2,4.559,50.443,3.033,59,3.033,59L.6,58.722a5.494,5.494,0,0,1-.6-1L3.488,37.534,4.3,7.825,5.557,2.614,5.85.111A.069.069,0,0,1,5.882.1a.964.964,0,0,1,.871.014l.119.061c-.035.1-.07.209-.1.317A49.721,49.721,0,0,0,5.46,9.23S6.829,19.594,6.983,24.416,6.182,40.465,6.182,40.465Z"
  transform="translate(23 88)" opacity="0.1" />
 <path id="Shape-17" data-name="Shape"
  d="M4,.811A1.777,1.777,0,0,1,3.916,1,8.055,8.055,0,0,1,.2,4L0,3.6.462,1.133,2.908,0A6.737,6.737,0,0,1,4,.811Z"
  transform="translate(19 143)" opacity="0.1" />
 <path id="Shape-18" data-name="Shape"
  d="M5.875,0,3.533,1.367,1.393,10.6S-1.279,18.432.778,24.025s3.255,8.783,3.255,8.783.822,6.362,2.054,6.874,1.77.8,1.77.8L8.1,42s3.346-1.107,4.53-3.043-.871-6.78-.871-6.78-1.767-4.116-1.315-6.033-.9-6.954-.9-7.073a11.808,11.808,0,0,1,.854-4.858c.976-2.058.33-2.935.33-2.935L10.109,5.4Z"
  transform="translate(10 105)" fill="#f96060" />
 <path id="Shape-19" data-name="Shape"
  d="M15,57.9s-6.1,2.278-8.047.277S5.215,46.84,5.215,46.84,3.356,29.583,2.18,26.749s-.56-23.29-.56-23.29A12.694,12.694,0,0,0,.146.119.69.69,0,0,0,0,0L.238.05l.84.18L2.362,1.247,6.488,27.554s7.154,20.257,8.481,28.433Z"
  transform="translate(41 85)" opacity="0.1" />
 <path id="Shape-20" data-name="Shape"
  d="M7,1.666H6.936c-.7.1-6.913.941-6.936-.5A4.993,4.993,0,0,1,.026.66L5.779,0,6.918,1.314h0c.02.086.038.161.054.218Z"
  transform="translate(55 142)" opacity="0.1" />
 <path id="Shape-21" data-name="Shape"
  d="M1.111,0,5.4,2.3s3.559,9.517,4.143,13.6c0,0,2.642,10.932.807,15.427S8.681,44.75,8.681,44.75s-1.049,1.64-1.477,1.2.156,1.72.156,1.72-7.325,1-7.36-.482,1.681-8.564,1.681-8.564.465-16.845-.2-19.485S1.111,0,1.111,0Z"
  transform="translate(55 96)" fill="#f96060" />
 <path id="Shape-22" data-name="Shape"
  d="M3.721,0S1.141,5.735.324,6.114.491,8,.491,8,5.172,2.038,3.721,0Z" transform="translate(39 114)"
  opacity="0.1" />
 <path id="Shape-23" data-name="Shape" d="M4,0C4.028-.128.939,3.322.115,3.836S3.119,3.808,4,0Z"
  transform="translate(38 93)" opacity="0.1" />
 <path id="Shape-24" data-name="Shape" d="M4,0S-.542,2.757.054,3.844,4,0,4,0Z"
  transform="translate(30 114)" opacity="0.1" />
 <path id="Shape-25" data-name="Shape" d="M0,0A25.544,25.544,0,0,0,10,3Z"
  transform="translate(42 156)" opacity="0.1" />
 <path id="Shape-26" data-name="Shape" d="M0,0S3.276,3.893,4.77,4,0,0,0,0Z"
  transform="translate(33 162)" opacity="0.1" />
 <path id="Shape-27" data-name="Shape" d="M4,0C3.852.076,2.121,3.882.354,4S4,0,4,0Z"
  transform="translate(33 180)" opacity="0.1" />
 <path id="Shape-28" data-name="Shape" d="M0,.125S3.273-.724,4,2C4,2,3.781,1.148,0,.125Z"
  transform="translate(54 189)" opacity="0.1" />
 <path id="Shape-29" data-name="Shape" d="M0,.284s4.05-.8,4.912.294S0,.284,0,.284Z"
  transform="translate(52 203)" opacity="0.1" />
 <path id="Shape-30" data-name="Shape"
  d="M4.328,0c0,.022-4.5.491-4.323.8s4.8.267,4.963-.224a.291.291,0,0,0-.09-.365A1.011,1.011,0,0,0,4.328,0Z"
  transform="translate(36 205)" opacity="0.1" />
 <path id="Shape-31" data-name="Shape" d="M0,.177S7.447-.437,6.979.622,0,.177,0,.177Z"
  transform="translate(50 209)" opacity="0.1" />
 <path id="Shape-32" data-name="Shape" d="M0,0C.038.1,4.408.666,5,2A39.262,39.262,0,0,0,.038.1"
  transform="translate(13 120)" opacity="0.1" />
 <path id="Shape-33" data-name="Shape" d="M4,0S-.287,1.325.015,3.333-.418,2.4,4,0Z"
  transform="translate(16 133)" opacity="0.1" />
 <path id="Shape-34" data-name="Shape" d="M0,1A4.038,4.038,0,0,1,2.732.027C4.064.246,0,1,0,1Z"
  transform="translate(17 140)" opacity="0.1" />
 <path id="Shape-35" data-name="Shape"
  d="M14.989,1.97a2.281,2.281,0,0,1-.459.333c-1.137.64-1.441,1.613-1.986,2.76a5.815,5.815,0,0,1-2.058,2.731c-1.3.761-3.015.481-4.367,1.148a3.289,3.289,0,0,0-1.809,3.247A9.339,9.339,0,0,0,4.7,13.675,10.442,10.442,0,0,1,5.11,16.9a.4.4,0,0,1,0,.1A8.947,8.947,0,0,1,0,8.883,8.959,8.959,0,0,1,5.275.866,9.449,9.449,0,0,1,15,1.967Z"
  transform="translate(24 67)" opacity="0.1" />
 <path id="Shape-36" data-name="Shape"
  d="M18.685,4.631A8.319,8.319,0,0,0,13.385.46,8.558,8.558,0,0,0,8.24.346,17.185,17.185,0,0,0,5.547,1.658C3.894,2.529,2.074,3.215.832,4.645a1.5,1.5,0,0,0-.47,1.2,3.289,3.289,0,0,0,.467.87,2.756,2.756,0,0,1,.024,2.18c-.243.709-.6,1.371-.769,2.1a2.268,2.268,0,0,0,.414,2.1,9.4,9.4,0,0,0,.78.578,4.325,4.325,0,0,1,.74.876L3.49,16.642A21.244,21.244,0,0,1,5.333,19.6a14.784,14.784,0,0,0,1.141,2.249,2.438,2.438,0,0,0,2.068,1.148.387.387,0,0,0,.326-.161.44.44,0,0,0,.043-.214,11.366,11.366,0,0,0-.4-3.337,10.219,10.219,0,0,1-.374-1.538,3.459,3.459,0,0,1,1.747-3.359c1.309-.687,2.965-.4,4.221-1.184a6.069,6.069,0,0,0,1.988-2.828c.534-1.176.82-2.194,1.918-2.856A2.038,2.038,0,0,0,18.685,4.631Z"
  transform="translate(20 62)" fill="#585268" />
 <path id="Shape-37" data-name="Shape" d="M0,0S1.272,1.805.947,2.827,0,0,0,0Z"
  transform="translate(36 216)" opacity="0.1" />
 <path id="Shape-38" data-name="Shape"
  d="M0,2S.285.044,1.434.026a4.31,4.31,0,0,1,2.08.193c.876.3,1.7.765,1.437.837S3.436-.066,2.174.542A9.186,9.186,0,0,0,0,2Z"
  transform="translate(54 218)" opacity="0.1" />
 <path id="Shape-39" data-name="Shape" d="M3.388,6,7,3.114S1.7-.454,1.065.048,0,5.053,0,5.053Z"
  transform="translate(27 88)" opacity="0.1" />
 <path id="Shape-40" data-name="Shape" d="M3.373,6,7,3.078S1.7-.446,1.065.047,0,5.244,0,5.244Z"
  transform="translate(27 87)" fill="#e1e7ef" />
 <path id="Shape-41" data-name="Shape" d="M3.373,6,7,3.078S1.7-.446,1.065.047,0,5.244,0,5.244Z"
  transform="translate(27 87)" opacity="0.03" />
 <path id="Shape-42" data-name="Shape"
  d="M15.861.173,15.738.112a1.081,1.081,0,0,0-1.144.117L2.326,9.9S-.341,13.487.037,19.674l7.233,9.963S8.1,26.261,9.089,26.9c0,0,1.4,17.273,0,19.765S7.063,58.477,7.063,58.477L11.816,59s.495-6.306,1.611-8.556,1.717-9.98,1.717-9.98,1-11.231.838-16.055S14.371,9.227,14.371,9.227,14.774,3.154,15.861.173Z"
  transform="translate(14 87)" fill="#f96060" />
 <path id="Shape-43" data-name="Shape" d="M4.887,6,0,4.185S6.226-2.644,7,1.145Z"
  transform="translate(36 85)" opacity="0.1" />
 <path id="Shape-44" data-name="Shape" d="M4.887,6,0,4.188S6.226-2.644,7,1.144Z"
  transform="translate(36 85)" fill="#e1e7ef" />
 <path id="Shape-45" data-name="Shape" d="M4.887,6,0,4.188S6.226-2.644,7,1.144Z"
  transform="translate(36 85)" opacity="0.03" />
 <path id="Shape-46" data-name="Shape" d="M0,.008A.5.5,0,0,1,.365.083Z" transform="translate(41 85)"
  opacity="0.1" />
 <path id="Shape-47" data-name="Shape"
  d="M0,0,13.137,2.823s3.612.8,6.221,9.816-3.573,20.072-3.573,20.072L14.42,31.559,15.1,57.9s-6.063,2.274-7.988.276S5.387,46.851,5.387,46.851,3.543,29.6,2.376,26.763,1.82,3.492,1.82,3.492.734-.153,0,0Z"
  transform="translate(42 85)" fill="#f96060" />
 <path id="Shape-48" data-name="Shape"
  d="M.182.12c-.2.169-.421,8.056.424,14.06A72.263,72.263,0,0,0,3,25L1.746.943S.772-.4.182.12Z"
  transform="translate(53 102)" opacity="0.1" />
 <path id="Shape-49" data-name="Shape" d="M0,0C.258.2,1.382,3.467.866,4.809S0,0,0,0Z"
  transform="translate(52 95)" opacity="0.1" />
 <path id="Shape-50" data-name="Shape"
  d="M12.664,3.11A7.445,7.445,0,0,0,9.682,0a7.06,7.06,0,0,1,2.235,2.616,2.088,2.088,0,0,1-.726,2.976c-1.139.658-1.5,1.715-2.058,2.936A6.177,6.177,0,0,1,7,11.432c-1.349.812-3.125.515-4.531,1.218A3.522,3.522,0,0,0,.588,16.106a9.824,9.824,0,0,0,.4,1.581,11.186,11.186,0,0,1,.425,3.431.439.439,0,0,1-.043.22.422.422,0,0,1-.35.166A2.015,2.015,0,0,1,0,21.315,2.384,2.384,0,0,0,1.768,22a.422.422,0,0,0,.35-.166.467.467,0,0,0,.046-.22,11.3,11.3,0,0,0-.428-3.431,9.823,9.823,0,0,1-.4-1.581,3.519,3.519,0,0,1,1.877-3.453c1.406-.706,3.182-.409,4.531-1.218A6.256,6.256,0,0,0,9.88,9.022c.574-1.209.878-2.256,2.058-2.936A2.058,2.058,0,0,0,12.664,3.11Z"
  transform="translate(27 63)" opacity="0.1" />
 <ellipse id="Oval-15" data-name="Oval" cx="11" cy="1.5" rx="11" ry="1.5"
  transform="translate(255 209)" fill="#6c63ff" opacity="0.1" />
 <ellipse id="Oval-16" data-name="Oval" cx="8" cy="1" rx="8" ry="1" transform="translate(170 224)"
  fill="#6c63ff" opacity="0.1" />
 <ellipse id="Oval-17" data-name="Oval" cx="8" cy="1" rx="8" ry="1" transform="translate(98 215)"
  fill="#6c63ff" opacity="0.1" />
 <path id="Shape-51" data-name="Shape"
  d="M9.942,5.243A3.313,3.313,0,0,0,10.966,3.6a1.482,1.482,0,0,0-.717-1.667c-.658-.266-1.361.218-1.893.7s-1.144,1.044-1.839.939A3.077,3.077,0,0,0,7.383.806,1.225,1.225,0,0,0,7.143.241C6.776-.173,6.113.006,5.677.331,4.287,1.364,3.9,3.364,3.891,5.161A9.8,9.8,0,0,1,3.865,3.18a2.093,2.093,0,0,0-.706-1.76,2.046,2.046,0,0,0-1.069-.283,2.136,2.136,0,0,0-1.746.526A1.907,1.907,0,0,0,.41,3.927,6.892,6.892,0,0,0,2.22,5.461a4.119,4.119,0,0,1,1.291,1.3,1.214,1.214,0,0,1,.1.235H7.528A11.028,11.028,0,0,0,9.942,5.243Z"
  transform="translate(100 209)" fill="#6c63ff" />
 <path id="Shape-52" data-name="Shape"
  d="M9.931,5.243A3.33,3.33,0,0,0,10.966,3.6a1.491,1.491,0,0,0-.716-1.667c-.658-.266-1.361.218-1.892.7s-1.144,1.044-1.842.939A3.062,3.062,0,0,0,7.381.806,1.164,1.164,0,0,0,7.141.241C6.777-.173,6.114.006,5.679.331,4.289,1.364,3.9,3.364,3.893,5.161A9.612,9.612,0,0,1,3.866,3.18a2.1,2.1,0,0,0-.706-1.76,2.045,2.045,0,0,0-1.069-.283,2.141,2.141,0,0,0-1.748.526A1.9,1.9,0,0,0,.413,3.927a6.934,6.934,0,0,0,1.81,1.534,4.119,4.119,0,0,1,1.291,1.3A1.41,1.41,0,0,1,3.61,7H7.526A10.98,10.98,0,0,0,9.931,5.243Z"
  transform="translate(261 203)" fill="#6c63ff" />
 <path id="Shape-53" data-name="Shape"
  d="M9.94,5.228a3.327,3.327,0,0,0,1.027-1.634,1.49,1.49,0,0,0-.716-1.662c-.658-.265-1.361.214-1.893.7s-1.144,1.038-1.842.937A3.054,3.054,0,0,0,7.382.8,1.191,1.191,0,0,0,7.141.24C6.775-.172,6.115.006,5.677.33,4.286,1.363,3.9,3.355,3.891,5.149a9.557,9.557,0,0,1-.024-1.975,2.084,2.084,0,0,0-.706-1.755,2.068,2.068,0,0,0-1.069-.282,2.155,2.155,0,0,0-1.748.525,1.894,1.894,0,0,0,.07,2.257A7.072,7.072,0,0,0,2.22,5.448a4.115,4.115,0,0,1,1.3,1.32,1.475,1.475,0,0,1,.1.231H7.534A10.9,10.9,0,0,0,9.94,5.228Z"
  transform="translate(170 216)" fill="#6c63ff" />
 <path id="Shape-54" data-name="Shape"
  d="M27.7,158.326c.023-1.587.8-2.135,1.289-2.325v-.2l.275-7.082a18.1,18.1,0,0,1,1.231-5.83c.008-.024.03-.049.03-.074a12.276,12.276,0,0,0,.85-4.144l.609-22.287V116c-3.3.319-7.987.451-11.813.5a3.531,3.531,0,0,1,.014.388c.107,3.227.239,8.989-.083,10.747-.455,2.49-1.755,11.922-1.755,11.922s-.492,3.246.511,5.227c.024.049.052.1.079.146a.273.273,0,0,0-.079-.148s1.632-.38,1.146,3.852a2.619,2.619,0,0,1-.171,1.051l-.316,5.952-2.472-.614-.371-2.171a10.055,10.055,0,0,0-1.874,3.558,2.927,2.927,0,0,1-2.27,2.848,10.545,10.545,0,0,1-4.374.349c-1.977-.547-1.1-1.9-1.1-1.9l2.3-2.677a1.719,1.719,0,0,1,0-.193c.088-1.174,1.437-3.824,2.473-5.71a8.737,8.737,0,0,0,1.071-4.594l-.437-9.437s-1.266-10.372-.909-13.5c.194-1.84.257-4.672.274-6.7V114.5a15.629,15.629,0,0,0-.942,2.022l-.033-.022v.022s-.563-.3-.78-1.835l.033-.061a15.064,15.064,0,0,1,.206-4.314c.877-5.429,1.167-29.272,1.167-29.272L13.272,63.1c-.5-.289-1.016-.611-1.541-.979l-1.165-1.376-1.374.4a.118.118,0,0,1,0,.025.5.5,0,0,1-.228.25.585.585,0,0,1-.274.039H8.616a.484.484,0,0,1-.428,0L8,61.375a2.516,2.516,0,0,1-.635-.275L2.777,59.034c-2.077-.959-.909-6.463-.909-6.463A13.759,13.759,0,0,1,2.6,48.3L0,43.913l3.764.674c.59-1.78,1.1-3.128,1.1-3.128L8.039,33.44s0-4.735,5.891-6.08a3.19,3.19,0,0,1,.786-1.767,4.893,4.893,0,0,0,.868-1.01,2.062,2.062,0,0,0-.2-1.739c-.588-1.284-1.445-2.487-1.923-3.808a3.922,3.922,0,0,1,.454-3.97c.522-.594,1.294-1.035,1.8-1.651a3.065,3.065,0,0,0,.385-.611,2.321,2.321,0,0,1-.638-.911,2,2,0,0,1-.129-.924,3.261,3.261,0,0,1,.42-1.736,19.947,19.947,0,0,0,1.124-2.08c.4-1.106.28-2.342.719-3.442.77-1.915,2.962-2.77,4.929-3.42A3.323,3.323,0,0,1,24.32.049c.786.176,1.31.895,1.962,1.376,1.316.977,3.038.941,4.756.906,1.764-.036,3.523-.072,4.83.989a4.994,4.994,0,0,1,1.615,3.346,11.213,11.213,0,0,1,.066,1.516c.008.891-.063,1.786-.08,2.674v.111c.031,2.08.5,4.264,2.05,5.627.5.443,1.1.776,1.588,1.235A2.159,2.159,0,0,1,41.9,19.6v.016a1.489,1.489,0,0,1,0,.369,5.76,5.76,0,0,1-.275.9,2.9,2.9,0,0,0-.1.59,5.78,5.78,0,0,0,.868,2.454c1.8,3.1,4.983,5.662,8.588,5.734a2.438,2.438,0,0,1-.063.385H51c-.237,1.81-2.132,2.861-3.808,3.6-.649.275-1.308.57-1.978.826A23.572,23.572,0,0,1,46.8,40.244a51.6,51.6,0,0,1,.681,7.933h-.041l.626,10.145s.844,5.365-5.327,4.072a41.227,41.227,0,0,1-7.212-2.366c1.115,2.947,2.756,6.926,3.931,8.213,1.951,2.132,2.731,9.209,3.217,16.962s.681,28.3.681,28.3H43.17c-.415,0-1.448.011-2.614.116a2.818,2.818,0,0,1,.017.385c.137,2.908.311,8.163-.1,9.9-.585,2.454-4.352,15.249-4.352,15.249l-.508,7.676-.014.2v.009c.05-.033.8-.488.613,2.041-.193,2.616-.324,6.526-.324,6.526s-.031,4.265-4.121,4.265a8.634,8.634,0,0,1-1.439.124C29.149,160,27.685,159.721,27.7,158.326Zm7.827-10.318v6.466l.06-7.364Z"
  transform="translate(210 65)" fill="url(#linear-gradient-5)" />
 <path id="Shape-55" data-name="Shape" d="M4,0,3.538,7,.617,6.413,0,3.5,4,0Z"
  transform="translate(227 214)" fill="#a27772" />
 <path id="Shape-56" data-name="Shape" d="M4,0,3.538,7,.617,6.413,0,3.5,4,0Z"
  transform="translate(227 214)" opacity="0.1" />
 <path id="Shape-57" data-name="Shape"
  d="M0,46.23,3.848,47l2.846-2.437V37.7l.063-.938v-.028h0l.014-.2.518-7.619s3.848-12.7,4.445-15.128c.424-1.73.248-6.948.108-9.83-.057-1.183-.108-1.972-.108-1.972L3.242,0,3.062,6.326,2.442,28.44a11.848,11.848,0,0,1-.871,4.112l-.028.074a17.435,17.435,0,0,0-1.232,5.8L.026,45.449v.2Z"
  transform="translate(239 175)" fill="#cc818c" />
 <path id="Shape-58" data-name="Shape" d="M0,0V.36H0L.025,0Z" transform="translate(246 212)"
  opacity="0.1" />
 <path id="Shape-59" data-name="Shape"
  d="M0,2.235,4.024,3,7,.579V0a.773.773,0,0,1-.429.626L6.53.648a8.613,8.613,0,0,1-4.518.82L.44,1.344a1.768,1.768,0,0,0-.414.093v.194Z"
  transform="translate(239 220)" opacity="0.1" />
 <path id="Shape-60" data-name="Shape"
  d="M6.92,8.2l.037-.022a.793.793,0,0,0,.378-.687L7.392.053s.762-.573.579,2.041-.305,6.521-.305,6.521S7.638,12.877,3.8,12.877c0,0-3.833.773-3.8-1.551s1.584-2.42,1.584-2.42l1.375.127A6.7,6.7,0,0,0,6.92,8.2Z"
  transform="translate(238 212)" fill="#b07473" />
 <path id="Shape-61" data-name="Shape"
  d="M0,42.025c.1,1.658,5.082.7,5.082.7l3.355-6.377s2.8-2.107,1.4-3.956a2.806,2.806,0,0,1-.207-.315v-.016h0c-.031-.049-.056-.1-.084-.15h0c-1.006-1.953-.512-5.157-.512-5.157s1.3-9.3,1.761-11.764c.321-1.737.19-7.425.081-10.609-.042-1.321-.081-2.213-.081-2.213L2.517,0V2.416c-.017,2-.078,4.793-.28,6.61-.358,3.094.914,13.332.914,13.332l.439,9.318a8.5,8.5,0,0,1-1.1,4.522C1.452,38.058.1,40.676,0,41.836a1.071,1.071,0,0,0,0,.189Z"
  transform="translate(220 178)" fill="#cc818c" />
 <path id="Shape-62" data-name="Shape"
  d="M0,10.018c.1,1.67,4.97.705,4.97.705L8.25,4.3S10.984,2.179,9.617.317A2.835,2.835,0,0,1,9.415,0,16,16,0,0,1,8.321,3.4S5.612,8.863,4.768,10.114.161,9.883.022,9.839A1.11,1.11,0,0,0,0,10.018Z"
  transform="translate(220 210)" opacity="0.1" />
 <path id="Shape-63" data-name="Shape"
  d="M11.783.009s1.606-.378,1.129,3.865h0A2.747,2.747,0,0,1,11.637,6.3a9.255,9.255,0,0,0-3.82,5.374h0a2.926,2.926,0,0,1-2.231,2.859,10.336,10.336,0,0,1-4.305.347c-1.948-.556-1.1-1.909-1.1-1.909l2.236-2.69s3.9,1.556,4.76.292S10.744,3.8,10.744,3.8,12.27.364,11.783.009Z"
  transform="translate(217 210)" fill="#b07473" />
 <path id="Shape-64" data-name="Shape"
  d="M.163,0,0,7c2.075-.234,3.537-.563,3.791-1.023C4.333,4.988,6.314,4.568,8,4.4c-.052-1.309-.1-2.182-.1-2.182Z"
  transform="translate(242 176)" opacity="0.1" />
 <path id="Shape-65" data-name="Shape"
  d="M0,2.193a2.806,2.806,0,0,1,.874-.978c.842-.435.751,2.779.751,2.779S4.42,4.018,8,3.975c-.04-1.2-.078-2.009-.078-2.009L0,0S.013.916,0,2.193Z"
  transform="translate(222 179)" opacity="0.1" />
 <path id="Shape-66" data-name="Shape"
  d="M.863,59s.966-2.585,1.832-3.06.775,3.054.775,3.054,21.23.191,22.292-1.433S33,56.034,33,56.034s-.193-20.238-.676-27.875-1.255-14.6-3.184-16.7C27.89,10.091,26.1,5.7,25.017,2.768c-.6-1.6-.993-2.768-.993-2.768L3.76,1.146,3.594,2.768,1.442,24.057S1.166,47.53.283,52.885.863,59,.863,59Z"
  transform="translate(220 123)" fill="#6074f9" />
 <g id="Group-32" data-name="Group" transform="translate(220 123)" opacity="0.1">
  <path id="Shape-67" data-name="Shape"
   d="M19.407,58.311c1.056-1.642,7.213-1.546,7.213-1.546s-.193-20.5-.674-28.239-1.251-14.8-3.174-16.922c-1.246-1.382-3.025-5.831-4.109-8.8-.5-1.363-.858-2.414-.96-2.715L19.272,0s.393,1.181.99,2.8c1.1,2.97,2.863,7.424,4.109,8.8,1.925,2.126,2.692,9.185,3.174,16.922s.663,28.225.663,28.225-6.155-.1-7.211,1.559c-.9,1.4-16.475,1.468-21,1.457C5.8,59.74,18.582,59.566,19.407,58.311Z"
   transform="translate(4.719 0.008)" />
  <path id="Shape-68" data-name="Shape"
   d="M1,.045c.39-.218.586.387.682,1.106a15.7,15.7,0,0,0-.91,1.98S.22,2.83,0,1.3A3.481,3.481,0,0,1,1,.045Z"
   transform="translate(0.129 56.615)" />
 </g>
 <path id="Shape-69" data-name="Shape"
  d="M3.923,2.937C2.562,4.87,3.939,7.615,2.479,9.493,2,10.114,1.254,10.557.751,11.165a4.094,4.094,0,0,0-.437,3.993c.458,1.329,1.286,2.536,1.854,3.828a2.159,2.159,0,0,1,.19,1.747,4.568,4.568,0,0,1-.836,1.017,3.785,3.785,0,0,0-.461,3.887,12.687,12.687,0,0,0,2.411,3.474A2.047,2.047,0,0,0,4.946,30a2.022,2.022,0,0,0,.927-.318,10.056,10.056,0,0,0,4.707-5.754,10.644,10.644,0,0,0-.4-7.063c-.8-1.97-2.111-3.859-2.122-5.943,0-1.652.817-3.229.962-4.876C9.195,4.048,8.056.872,5.736,0,5.889,1.29,4.624,1.956,3.923,2.937Z"
  transform="translate(223 70)" fill="#585268" />
 <path id="Shape-70" data-name="Shape"
  d="M3.923,2.937C2.562,4.87,3.939,7.615,2.479,9.493,2,10.114,1.254,10.557.751,11.165a4.094,4.094,0,0,0-.437,3.993c.458,1.329,1.286,2.536,1.854,3.828a2.159,2.159,0,0,1,.19,1.747,4.568,4.568,0,0,1-.836,1.017,3.785,3.785,0,0,0-.461,3.887,12.687,12.687,0,0,0,2.411,3.474A2.047,2.047,0,0,0,4.946,30a2.022,2.022,0,0,0,.927-.318,10.056,10.056,0,0,0,4.707-5.754,10.644,10.644,0,0,0-.4-7.063c-.8-1.97-2.111-3.859-2.122-5.943,0-1.652.817-3.229.962-4.876C9.195,4.048,8.056.872,5.736,0,5.889,1.29,4.624,1.956,3.923,2.937Z"
  transform="translate(223 70)" opacity="0.1" />
 <path id="Shape-71" data-name="Shape"
  d="M16,0A19.172,19.172,0,0,0,7.778,2.883,54.881,54.881,0,0,1,0,7" transform="translate(228 143)"
  opacity="0.1" />
 <path id="Shape-72" data-name="Shape"
  d="M13,0A11.377,11.377,0,0,0,5.808,3.555c-.672.725-1.251,1.538-1.953,2.232A8.668,8.668,0,0,1,0,8"
  transform="translate(228 149)" opacity="0.1" />
 <path id="Shape-73" data-name="Shape"
  d="M16,0a12.858,12.858,0,0,0-5.9,3.523c-.433.462-.833.96-1.261,1.419C6.5,7.417,3.191,8.751,0,10"
  transform="translate(226 154)" opacity="0.1" />
 <path id="Shape-74" data-name="Shape"
  d="M11.094.137a60.012,60.012,0,0,0,.577,6.816,8.909,8.909,0,0,0,1.154,3.68C14.36,12.5,5.331,15,5.331,15L0,10.793S4.227,6.818,2.258,2.939,11.094.137,11.094.137Z"
  transform="translate(231 84)" fill="#cc818c" />
 <path id="Shape-75" data-name="Shape" d="M0,3H22c-.615-1.737-1.02-3-1.02-3L.17,1.243Z"
  transform="translate(224 123)" opacity="0.1" />
 <path id="Shape-76" data-name="Shape"
  d="M4.182,33H27.09a7.992,7.992,0,0,1,.919-6.1,13.456,13.456,0,0,1,2.4-3.125l.157-.141,8-1.781L39,21.763s.063-14.6-5.084-16.6A30.165,30.165,0,0,1,25.677.452L18.6,2.646,13.386,0C11.714,1.809,7.273,1.108,7.273,1.108,0,1.939,0,7.439,0,7.439s4.248,9.949,4.571,9.949S4.182,33,4.182,33Z"
  transform="translate(218 92)" fill="#67647e" />
 <path id="Shape-77" data-name="Shape" d="M6,3S1.523,1.909,0,0" transform="translate(224 113)"
  opacity="0.1" />
 <path id="Shape-78" data-name="Shape"
  d="M5.189,0,0,4.049A7.832,7.832,0,0,0,.172,5l.151-.128L8,3.254Z" transform="translate(249 110)"
  opacity="0.1" />
 <path id="Shape-79" data-name="Shape"
  d="M0,6.428S1.181,7.109,2.988,8h3.1A8.25,8.25,0,0,1,7,1.814L1.527,0C3.394,1.772,0,6.428,0,6.428Z"
  transform="translate(240 117)" opacity="0.1" />
 <path id="Shape-80" data-name="Shape"
  d="M9.751,0,6.5,1.754,3.317,9.816S0,18.659.327,21c0,0-1.168,5.524.911,6.5l5.423,2.454a.5.5,0,0,0,.649-.694c-.772-1.464-1.619-3.751-.279-5.019l-1.56-3.249,5.648-9.225L13,8.594Z"
  transform="translate(212 97)" fill="#67647e" />
 <path id="Shape-81" data-name="Shape"
  d="M.031,2.221C.3,3.372,1.2,5.142,4.193,5.81L7.484,8.644l3.491,1.677L12.4,11,13,6.4l-1.37-.791-1.59-.92S6.438-2.193.731.717a1.355,1.355,0,0,0-.7,1.5Z"
  transform="translate(229 111)" opacity="0.1" />
 <path id="Shape-82" data-name="Shape"
  d="M.031,2.217C.3,3.369,1.2,5.138,4.192,5.806L7.484,8.644l3.491,1.677L12.4,11,13,6.4l-1.37-.788-1.59-.922S6.437-2.191.731.716a1.355,1.355,0,0,0-.7,1.5Z"
  transform="translate(229 111)" fill="#cc818c" />
 <circle id="Oval-18" data-name="Oval" cx="8" cy="8" r="8" transform="translate(227 74)"
  opacity="0.1" />
 <circle id="Oval-19" data-name="Oval" cx="8" cy="8" r="8" transform="translate(227 74)"
  fill="#cc818c" />
 <path id="Shape-83" data-name="Shape"
  d="M2.551,8,0,3.423s3.752-1.39,4.024-3S7.618,2.308,6.9,3.469A45.051,45.051,0,0,1,2.551,8Z"
  transform="translate(238 91)" opacity="0.1" />
 <path id="Shape-84" data-name="Shape"
  d="M2.551,8,0,3.422s3.752-1.39,4.024-3S7.618,2.311,6.9,3.469A45.341,45.341,0,0,1,2.551,8Z"
  transform="translate(238 91)" fill="#67647e" />
 <path id="Shape-85" data-name="Shape"
  d="M10.061,1.782,24,20.236s-5.135,2.747-12.222-2.178L8.712,14.474,0,0Z"
  transform="translate(211 110)" fill="#f6f8fb" />
 <path id="Shape-86" data-name="Shape"
  d="M.323,4.673l1.2-.032s7.35-7.286,9.153-3.6S6.1,8.165,6.1,8.165L4.162,9.244,1.618,10,0,7.782Z"
  transform="translate(217 117)" fill="#cc818c" />
 <path id="Shape-87" data-name="Shape"
  d="M3.864,5.261A2.275,2.275,0,0,1,3.9,6.682a.521.521,0,0,1-.226.272A.493.493,0,0,1,3.4,7a2.509,2.509,0,0,1-1.7-.94A8.635,8.635,0,0,1,.59,4.278,3.512,3.512,0,0,1,.025,2.162,2.985,2.985,0,0,1,1.427.348C2.679-.574,2.709.5,2.994,1.684Z"
  transform="translate(216 121)" opacity="0.1" />
 <path id="Shape-88" data-name="Shape"
  d="M3.864,5.261A2.275,2.275,0,0,1,3.9,6.682a.521.521,0,0,1-.226.272A.493.493,0,0,1,3.4,7a2.509,2.509,0,0,1-1.7-.94A8.635,8.635,0,0,1,.59,4.278,3.512,3.512,0,0,1,.025,2.162,2.985,2.985,0,0,1,1.427.348C2.679-.574,2.709.5,2.994,1.684Z"
  transform="translate(215 121)" fill="#67647e" />
 <path id="Shape-89" data-name="Shape" d="M0,1.077,1,0,.124,2,0,1.077Z"
  transform="translate(223 108)" opacity="0.1" />
 <path id="Shape-90" data-name="Shape"
  d="M0,4.369,1.4,5,2,.732.647,0C1.571,1.054.762,3.011,0,4.369Z" transform="translate(240 117)"
  opacity="0.1" />
 <path id="Shape-91" data-name="Shape" d="M7,.974S2.084,1.252,0,0" transform="translate(240 115)"
  opacity="0.1" />
 <g id="Group-33" data-name="Group" transform="translate(226 92)" opacity="0.1">
  <path id="Shape-92" data-name="Shape"
   d="M2.1,26.263a13.42,13.42,0,0,1,2.379-3.1,6.553,6.553,0,0,1,.7-.385l7.385-1.523.427-.094S13.06,6.669,7.956,4.681A30.768,30.768,0,0,1,0,.173L.561,0A29.67,29.67,0,0,0,8.722,4.675c5.1,1.983,5.043,16.484,5.043,16.484H13L5.44,22.613l-.427.41A14.658,14.658,0,0,0,2.6,26.232a8.094,8.094,0,0,0-.632,6.083H1.184A8.04,8.04,0,0,1,2.1,26.263Z"
   transform="translate(18.161 0.443)" />
  <path id="Shape-93" data-name="Shape"
   d="M0,.066C.123.044.241.018.366,0A10.133,10.133,0,0,0,1.928.172,10.532,10.532,0,0,1,0,.066Z"
   transform="translate(0.109 1.084)" />
  <path id="Shape-94" data-name="Shape" d="M4.671,2.618,0,.25A2.617,2.617,0,0,0,.274,0L5.147,2.475Z"
   transform="translate(6.263 0.003)" />
 </g>
 <path id="Shape-95" data-name="Shape"
  d="M15.063,0,18.3,3.946l.66,10.71s.85,5.454-5.418,4.14S0,13.407,0,13.407,3.5,8.74,1.587,6.967l8.985,2.892s1.519-.33.329-1.643A7.364,7.364,0,0,1,9.5,4.535Z"
  transform="translate(240 110)" fill="#67647e" />
 <path id="Shape-96" data-name="Shape" d="M0,0,1,2A2.513,2.513,0,0,1,0,0Z"
  transform="translate(255 121)" opacity="0.1" />
 <path id="Shape-97" data-name="Shape" d="M0,0,3,3.66,1.5,4,0,0Z" transform="translate(252 120)"
  opacity="0.1" />
 <path id="Shape-98" data-name="Shape"
  d="M.137,11.5A2.846,2.846,0,0,1,.411,9.225,18.562,18.562,0,0,0,1.506,7.145c.4-1.108.274-2.348.706-3.439C2.97,1.8,5.125.937,7.057.292A3.247,3.247,0,0,1,8.82.048c.772.188,1.289.905,1.916,1.384,2.622,1.977,6.884-.2,9.419,1.894a5.017,5.017,0,0,1,1.588,3.342,30.383,30.383,0,0,1-.014,3.8c-.041,2.215.367,4.646,2.012,6.117.5.443,1.079.778,1.56,1.235a2.18,2.18,0,0,1,.777,1.764,6.06,6.06,0,0,1-.274.894,4.609,4.609,0,0,0,.753,3.428c1.774,3.1,4.9,5.657,8.442,5.729-.238,1.808-2.094,2.858-3.742,3.6-2.1.944-4.306,1.872-6.6,1.753s-4.686-1.6-5.094-3.877c-.14-.784-.12-1.744-.794-2.157-.405-.249-.931-.186-1.369-.374a2.468,2.468,0,0,1-1.155-1.645,15,15,0,0,1-.682-4.22c-.027-1.7.2-3.55-.756-4.948-.881-1.293-2.447-1.938-3.463-3.14-.936-1.108-1.957-2.431-3.493-2.642C5.79,11.686,1.394,14.608.137,11.5Z"
  transform="translate(226 66)" opacity="0.1" />
 <path id="Shape-99" data-name="Shape"
  d="M.137,11.5A2.846,2.846,0,0,1,.411,9.225,18.562,18.562,0,0,0,1.506,7.145c.4-1.108.274-2.348.706-3.439C2.97,1.8,5.125.937,7.057.292A3.247,3.247,0,0,1,8.82.048c.772.188,1.289.905,1.916,1.384,2.622,1.98,6.884-.2,9.419,1.894a5.023,5.023,0,0,1,1.588,3.342,30.383,30.383,0,0,1-.014,3.8c-.041,2.215.367,4.646,2.012,6.117.5.443,1.079.778,1.56,1.235a2.18,2.18,0,0,1,.777,1.764,6.194,6.194,0,0,1-.274.9,4.6,4.6,0,0,0,.753,3.425c1.774,3.1,4.9,5.657,8.442,5.729-.238,1.808-2.094,2.858-3.742,3.6-2.1.947-4.306,1.872-6.6,1.753s-4.686-1.6-5.094-3.89c-.14-.784-.12-1.744-.794-2.157-.405-.249-.931-.186-1.369-.374a2.468,2.468,0,0,1-1.155-1.645,15,15,0,0,1-.682-4.22c-.027-1.7.2-3.55-.756-4.948-.881-1.293-2.447-1.938-3.463-3.14-.936-1.108-1.957-2.431-3.493-2.642C5.79,11.7,1.394,14.608.137,11.5Z"
  transform="translate(226 66)" fill="#585268" />
 <path id="Shape-100" data-name="Shape"
  d="M1.791,7,7,3.46s-3.565-1.618-3.991-3S-.269,1.117.021,2.356A46.65,46.65,0,0,0,1.791,7Z"
  transform="translate(230 91)" opacity="0.1" />
 <path id="Shape-101" data-name="Shape"
  d="M1.791,7,7,3.46s-3.565-1.618-3.991-3S-.269,1.117.021,2.356A46.65,46.65,0,0,0,1.791,7Z"
  transform="translate(230 91)" fill="#67647e" />
 <circle id="Oval-20" data-name="Oval" cx="0.5" cy="0.5" r="0.5" transform="translate(237 97)"
  opacity="0.1" />
 <circle id="Oval-21" data-name="Oval" cx="0.5" cy="0.5" r="0.5" transform="translate(237 100)"
  opacity="0.1" />
 <circle id="Oval-22" data-name="Oval" cx="0.5" cy="0.5" r="0.5" transform="translate(237 102)"
  opacity="0.1" />
 <g id="Group-34" data-name="Group" transform="translate(226 69)" opacity="0.1">
  <path id="Shape-102" data-name="Shape"
   d="M.5,3.233C.879,2.2.8,1.04,1.153,0a3.727,3.727,0,0,0-.4.739C.307,1.826.43,3.068.028,4.168c0,.019-.02.041-.028.063a6.079,6.079,0,0,0,.5-1Z"
   transform="translate(1.658 0.008)" />
  <path id="Shape-103" data-name="Shape"
   d="M32.383,23.462a15.147,15.147,0,0,1-6.731,1.746c-2.341-.119-4.775-1.6-5.191-3.876-.142-.781-.123-1.738-.809-2.149-.413-.248-.949-.185-1.4-.372a2.452,2.452,0,0,1-1.178-1.639,14.629,14.629,0,0,1-.695-4.21c-.028-1.691.2-3.537-.77-4.93-.9-1.288-2.495-1.931-3.53-3.128-.957-1.1-2-2.422-3.564-2.632C6.37,2,1.886,4.894.608,1.793A2.41,2.41,0,0,1,.689,0C.6.154.507.309.426.466A2.7,2.7,0,0,0,.147,2.728c1.281,3.1,5.763.19,7.914.48,1.566.21,2.607,1.537,3.564,2.632,1.035,1.186,2.629,1.84,3.527,3.131.971,1.379.745,3.239.773,4.927a14.563,14.563,0,0,0,.692,4.207A2.43,2.43,0,0,0,17.8,19.743c.447.185.982.124,1.4.372.684.408.667,1.379.807,2.146.416,2.279,2.855,3.76,5.193,3.879a15.139,15.139,0,0,0,6.728-1.749c1.54-.676,3.257-1.617,3.717-3.156A8.019,8.019,0,0,1,32.383,23.462Z"
   transform="translate(0.135 5.774)" />
 </g>
</svg>