<?xml version="1.0" standalone="no"?>
<svg xmlns:xlink="http://www.w3.org/1999/xlink" id="wave" style="transform:rotate(0deg); transition: 0.3s" viewBox="0 0 1440 490" version="1.1" xmlns="http://www.w3.org/2000/svg"><defs><linearGradient id="sw-gradient-0" x1="0" x2="0" y1="1" y2="0"><stop stop-color="rgba(249, 96, 96, 1)" offset="0%"/><stop stop-color="rgba(231.697, 164.436, 164.436, 1)" offset="100%"/></linearGradient></defs><path style="transform:translate(0, 0px); opacity:1" fill="url(#sw-gradient-0)" d="M0,49L60,40.8C120,33,240,16,360,49C480,82,600,163,720,163.3C840,163,960,82,1080,73.5C1200,65,1320,131,1440,171.5C1560,212,1680,229,1800,261.3C1920,294,2040,343,2160,351.2C2280,359,2400,327,2520,261.3C2640,196,2760,98,2880,106.2C3000,114,3120,229,3240,269.5C3360,310,3480,278,3600,228.7C3720,180,3840,114,3960,147C4080,180,4200,310,4320,367.5C4440,425,4560,408,4680,375.7C4800,343,4920,294,5040,277.7C5160,261,5280,278,5400,302.2C5520,327,5640,359,5760,367.5C5880,376,6000,359,6120,359.3C6240,359,6360,376,6480,375.7C6600,376,6720,359,6840,326.7C6960,294,7080,245,7200,228.7C7320,212,7440,229,7560,269.5C7680,310,7800,376,7920,367.5C8040,359,8160,278,8280,228.7C8400,180,8520,163,8580,155.2L8640,147L8640,490L8580,490C8520,490,8400,490,8280,490C8160,490,8040,490,7920,490C7800,490,7680,490,7560,490C7440,490,7320,490,7200,490C7080,490,6960,490,6840,490C6720,490,6600,490,6480,490C6360,490,6240,490,6120,490C6000,490,5880,490,5760,490C5640,490,5520,490,5400,490C5280,490,5160,490,5040,490C4920,490,4800,490,4680,490C4560,490,4440,490,4320,490C4200,490,4080,490,3960,490C3840,490,3720,490,3600,490C3480,490,3360,490,3240,490C3120,490,3000,490,2880,490C2760,490,2640,490,2520,490C2400,490,2280,490,2160,490C2040,490,1920,490,1800,490C1680,490,1560,490,1440,490C1320,490,1200,490,1080,490C960,490,840,490,720,490C600,490,480,490,360,490C240,490,120,490,60,490L0,490Z"/><defs><linearGradient id="sw-gradient-1" x1="0" x2="0" y1="1" y2="0"><stop stop-color="rgba(249, 96, 96, 1)" offset="0%"/><stop stop-color="rgba(244.789, 108.67, 108.67, 1)" offset="100%"/></linearGradient></defs><path style="transform:translate(0, 50px); opacity:0.9" fill="url(#sw-gradient-1)" d="M0,392L60,343C120,294,240,196,360,204.2C480,212,600,327,720,310.3C840,294,960,147,1080,89.8C1200,33,1320,65,1440,138.8C1560,212,1680,327,1800,367.5C1920,408,2040,376,2160,334.8C2280,294,2400,245,2520,245C2640,245,2760,294,2880,277.7C3000,261,3120,180,3240,171.5C3360,163,3480,229,3600,212.3C3720,196,3840,98,3960,114.3C4080,131,4200,261,4320,277.7C4440,294,4560,196,4680,130.7C4800,65,4920,33,5040,49C5160,65,5280,131,5400,179.7C5520,229,5640,261,5760,261.3C5880,261,6000,229,6120,179.7C6240,131,6360,65,6480,73.5C6600,82,6720,163,6840,204.2C6960,245,7080,245,7200,236.8C7320,229,7440,212,7560,236.8C7680,261,7800,327,7920,318.5C8040,310,8160,229,8280,212.3C8400,196,8520,245,8580,269.5L8640,294L8640,490L8580,490C8520,490,8400,490,8280,490C8160,490,8040,490,7920,490C7800,490,7680,490,7560,490C7440,490,7320,490,7200,490C7080,490,6960,490,6840,490C6720,490,6600,490,6480,490C6360,490,6240,490,6120,490C6000,490,5880,490,5760,490C5640,490,5520,490,5400,490C5280,490,5160,490,5040,490C4920,490,4800,490,4680,490C4560,490,4440,490,4320,490C4200,490,4080,490,3960,490C3840,490,3720,490,3600,490C3480,490,3360,490,3240,490C3120,490,3000,490,2880,490C2760,490,2640,490,2520,490C2400,490,2280,490,2160,490C2040,490,1920,490,1800,490C1680,490,1560,490,1440,490C1320,490,1200,490,1080,490C960,490,840,490,720,490C600,490,480,490,360,490C240,490,120,490,60,490L0,490Z"/></svg>